<svg width="158" height="121" viewBox="0 0 158 121" fill="none" xmlns="http://www.w3.org/2000/svg">
<g opacity="0.2">
<mask id="mask0_2315_185" style="mask-type:luminance" maskUnits="userSpaceOnUse" x="-48" y="0" width="245" height="245">
<path d="M74.082 244.522C141.461 244.522 196.082 189.901 196.082 122.522C196.082 55.1437 141.461 0.522461 74.082 0.522461C6.70329 0.522461 -47.918 55.1437 -47.918 122.522C-47.918 189.901 6.70329 244.522 74.082 244.522Z" fill="white"/>
</mask>
<g mask="url(#mask0_2315_185)">
<path fill-rule="evenodd" clip-rule="evenodd" d="M116.608 -5.03442C116.608 -3.92985 115.713 -3.03442 114.608 -3.03442C113.504 -3.03442 112.608 -3.92985 112.608 -5.03442C112.608 -6.13899 113.504 -7.03442 114.608 -7.03442C115.713 -7.03442 116.608 -6.13899 116.608 -5.03442ZM114.608 12.9656C115.713 12.9656 116.608 12.0701 116.608 10.9656C116.608 9.86101 115.713 8.96558 114.608 8.96558C113.504 8.96558 112.608 9.86101 112.608 10.9656C112.608 12.0701 113.504 12.9656 114.608 12.9656ZM130.608 12.9656C131.713 12.9656 132.608 12.0701 132.608 10.9656C132.608 9.86101 131.713 8.96558 130.608 8.96558C129.504 8.96558 128.608 9.86101 128.608 10.9656C128.608 12.0701 129.504 12.9656 130.608 12.9656ZM148.608 10.9656C148.608 12.0701 147.713 12.9656 146.608 12.9656C145.504 12.9656 144.608 12.0701 144.608 10.9656C144.608 9.86101 145.504 8.96558 146.608 8.96558C147.713 8.96558 148.608 9.86101 148.608 10.9656ZM162.608 12.9656C163.713 12.9656 164.608 12.0701 164.608 10.9656C164.608 9.86101 163.713 8.96558 162.608 8.96558C161.504 8.96558 160.608 9.86101 160.608 10.9656C160.608 12.0701 161.504 12.9656 162.608 12.9656ZM180.608 10.9656C180.608 12.0701 179.713 12.9656 178.608 12.9656C177.504 12.9656 176.608 12.0701 176.608 10.9656C176.608 9.86101 177.504 8.96558 178.608 8.96558C179.713 8.96558 180.608 9.86101 180.608 10.9656ZM194.608 12.9656C195.713 12.9656 196.608 12.0701 196.608 10.9656C196.608 9.86101 195.713 8.96558 194.608 8.96558C193.504 8.96558 192.608 9.86101 192.608 10.9656C192.608 12.0701 193.504 12.9656 194.608 12.9656ZM130.608 -3.03442C131.713 -3.03442 132.608 -3.92985 132.608 -5.03442C132.608 -6.13899 131.713 -7.03442 130.608 -7.03442C129.504 -7.03442 128.608 -6.13899 128.608 -5.03442C128.608 -3.92985 129.504 -3.03442 130.608 -3.03442ZM148.608 -5.03442C148.608 -3.92985 147.713 -3.03442 146.608 -3.03442C145.504 -3.03442 144.608 -3.92985 144.608 -5.03442C144.608 -6.13899 145.504 -7.03442 146.608 -7.03442C147.713 -7.03442 148.608 -6.13899 148.608 -5.03442ZM162.608 -3.03442C163.713 -3.03442 164.608 -3.92985 164.608 -5.03442C164.608 -6.13899 163.713 -7.03442 162.608 -7.03442C161.504 -7.03442 160.608 -6.13899 160.608 -5.03442C160.608 -3.92985 161.504 -3.03442 162.608 -3.03442ZM180.608 -5.03442C180.608 -3.92985 179.713 -3.03442 178.608 -3.03442C177.504 -3.03442 176.608 -3.92985 176.608 -5.03442C176.608 -6.13899 177.504 -7.03442 178.608 -7.03442C179.713 -7.03442 180.608 -6.13899 180.608 -5.03442ZM194.608 -3.03442C195.713 -3.03442 196.608 -3.92985 196.608 -5.03442C196.608 -6.13899 195.713 -7.03442 194.608 -7.03442C193.504 -7.03442 192.608 -6.13899 192.608 -5.03442C192.608 -3.92985 193.504 -3.03442 194.608 -3.03442ZM10.6083 12.9656C11.7129 12.9656 12.6083 12.0701 12.6083 10.9656C12.6083 9.86101 11.7129 8.96558 10.6083 8.96558C9.50377 8.96558 8.60834 9.86101 8.60834 10.9656C8.60834 12.0701 9.50377 12.9656 10.6083 12.9656ZM26.6083 12.9656C27.7129 12.9656 28.6083 12.0701 28.6083 10.9656C28.6083 9.86101 27.7129 8.96558 26.6083 8.96558C25.5038 8.96558 24.6083 9.86101 24.6083 10.9656C24.6083 12.0701 25.5038 12.9656 26.6083 12.9656ZM44.6083 10.9656C44.6083 12.0701 43.7129 12.9656 42.6083 12.9656C41.5038 12.9656 40.6083 12.0701 40.6083 10.9656C40.6083 9.86101 41.5038 8.96558 42.6083 8.96558C43.7129 8.96558 44.6083 9.86101 44.6083 10.9656ZM58.6083 12.9656C59.7129 12.9656 60.6083 12.0701 60.6083 10.9656C60.6083 9.86101 59.7129 8.96558 58.6083 8.96558C57.5038 8.96558 56.6083 9.86101 56.6083 10.9656C56.6083 12.0701 57.5038 12.9656 58.6083 12.9656ZM76.6083 10.9656C76.6083 12.0701 75.7129 12.9656 74.6083 12.9656C73.5038 12.9656 72.6083 12.0701 72.6083 10.9656C72.6083 9.86101 73.5038 8.96558 74.6083 8.96558C75.7129 8.96558 76.6083 9.86101 76.6083 10.9656ZM90.6083 12.9656C91.7129 12.9656 92.6083 12.0701 92.6083 10.9656C92.6083 9.86101 91.7129 8.96558 90.6083 8.96558C89.5038 8.96558 88.6083 9.86101 88.6083 10.9656C88.6083 12.0701 89.5038 12.9656 90.6083 12.9656ZM10.6083 -3.03442C11.7129 -3.03442 12.6083 -3.92985 12.6083 -5.03442C12.6083 -6.13899 11.7129 -7.03442 10.6083 -7.03442C9.50377 -7.03442 8.60834 -6.13899 8.60834 -5.03442C8.60834 -3.92985 9.50377 -3.03442 10.6083 -3.03442ZM20.6083 26.9656C20.6083 28.0701 19.7129 28.9656 18.6083 28.9656C17.5038 28.9656 16.6083 28.0701 16.6083 26.9656C16.6083 25.861 17.5038 24.9656 18.6083 24.9656C19.7129 24.9656 20.6083 25.861 20.6083 26.9656ZM18.6083 44.9656C19.7129 44.9656 20.6083 44.0701 20.6083 42.9656C20.6083 41.861 19.7129 40.9656 18.6083 40.9656C17.5038 40.9656 16.6083 41.861 16.6083 42.9656C16.6083 44.0701 17.5038 44.9656 18.6083 44.9656ZM34.6083 44.9656C35.7129 44.9656 36.6083 44.0701 36.6083 42.9656C36.6083 41.861 35.7129 40.9656 34.6083 40.9656C33.5038 40.9656 32.6083 41.861 32.6083 42.9656C32.6083 44.0701 33.5038 44.9656 34.6083 44.9656ZM52.6083 42.9656C52.6083 44.0701 51.7129 44.9656 50.6083 44.9656C49.5038 44.9656 48.6083 44.0701 48.6083 42.9656C48.6083 41.861 49.5038 40.9656 50.6083 40.9656C51.7129 40.9656 52.6083 41.861 52.6083 42.9656ZM66.6083 44.9656C67.7129 44.9656 68.6083 44.0701 68.6083 42.9656C68.6083 41.861 67.7129 40.9656 66.6083 40.9656C65.5038 40.9656 64.6083 41.861 64.6083 42.9656C64.6083 44.0701 65.5038 44.9656 66.6083 44.9656ZM84.6083 42.9656C84.6083 44.0701 83.7129 44.9656 82.6083 44.9656C81.5038 44.9656 80.6083 44.0701 80.6083 42.9656C80.6083 41.861 81.5038 40.9656 82.6083 40.9656C83.7129 40.9656 84.6083 41.861 84.6083 42.9656ZM98.6083 44.9656C99.7129 44.9656 100.608 44.0701 100.608 42.9656C100.608 41.861 99.7129 40.9656 98.6083 40.9656C97.5038 40.9656 96.6083 41.861 96.6083 42.9656C96.6083 44.0701 97.5038 44.9656 98.6083 44.9656ZM34.6083 28.9656C35.7129 28.9656 36.6083 28.0701 36.6083 26.9656C36.6083 25.861 35.7129 24.9656 34.6083 24.9656C33.5038 24.9656 32.6083 25.861 32.6083 26.9656C32.6083 28.0701 33.5038 28.9656 34.6083 28.9656ZM52.6083 26.9656C52.6083 28.0701 51.7129 28.9656 50.6083 28.9656C49.5038 28.9656 48.6083 28.0701 48.6083 26.9656C48.6083 25.861 49.5038 24.9656 50.6083 24.9656C51.7129 24.9656 52.6083 25.861 52.6083 26.9656ZM66.6083 28.9656C67.7129 28.9656 68.6083 28.0701 68.6083 26.9656C68.6083 25.861 67.7129 24.9656 66.6083 24.9656C65.5038 24.9656 64.6083 25.861 64.6083 26.9656C64.6083 28.0701 65.5038 28.9656 66.6083 28.9656ZM84.6083 26.9656C84.6083 28.0701 83.7129 28.9656 82.6083 28.9656C81.5038 28.9656 80.6083 28.0701 80.6083 26.9656C80.6083 25.861 81.5038 24.9656 82.6083 24.9656C83.7129 24.9656 84.6083 25.861 84.6083 26.9656ZM98.6083 28.9656C99.7129 28.9656 100.608 28.0701 100.608 26.9656C100.608 25.861 99.7129 24.9656 98.6083 24.9656C97.5038 24.9656 96.6083 25.861 96.6083 26.9656C96.6083 28.0701 97.5038 28.9656 98.6083 28.9656ZM26.6083 -3.03442C27.7129 -3.03442 28.6083 -3.92985 28.6083 -5.03442C28.6083 -6.13899 27.7129 -7.03442 26.6083 -7.03442C25.5038 -7.03442 24.6083 -6.13899 24.6083 -5.03442C24.6083 -3.92985 25.5038 -3.03442 26.6083 -3.03442ZM116.608 26.9656C116.608 28.0701 115.713 28.9656 114.608 28.9656C113.504 28.9656 112.608 28.0701 112.608 26.9656C112.608 25.861 113.504 24.9656 114.608 24.9656C115.713 24.9656 116.608 25.861 116.608 26.9656ZM114.608 44.9656C115.713 44.9656 116.608 44.0701 116.608 42.9656C116.608 41.861 115.713 40.9656 114.608 40.9656C113.504 40.9656 112.608 41.861 112.608 42.9656C112.608 44.0701 113.504 44.9656 114.608 44.9656ZM130.608 44.9656C131.713 44.9656 132.608 44.0701 132.608 42.9656C132.608 41.861 131.713 40.9656 130.608 40.9656C129.504 40.9656 128.608 41.861 128.608 42.9656C128.608 44.0701 129.504 44.9656 130.608 44.9656ZM148.608 42.9656C148.608 44.0701 147.713 44.9656 146.608 44.9656C145.504 44.9656 144.608 44.0701 144.608 42.9656C144.608 41.861 145.504 40.9656 146.608 40.9656C147.713 40.9656 148.608 41.861 148.608 42.9656ZM162.608 44.9656C163.713 44.9656 164.608 44.0701 164.608 42.9656C164.608 41.861 163.713 40.9656 162.608 40.9656C161.504 40.9656 160.608 41.861 160.608 42.9656C160.608 44.0701 161.504 44.9656 162.608 44.9656ZM180.608 42.9656C180.608 44.0701 179.713 44.9656 178.608 44.9656C177.504 44.9656 176.608 44.0701 176.608 42.9656C176.608 41.861 177.504 40.9656 178.608 40.9656C179.713 40.9656 180.608 41.861 180.608 42.9656ZM194.608 44.9656C195.713 44.9656 196.608 44.0701 196.608 42.9656C196.608 41.861 195.713 40.9656 194.608 40.9656C193.504 40.9656 192.608 41.861 192.608 42.9656C192.608 44.0701 193.504 44.9656 194.608 44.9656ZM130.608 28.9656C131.713 28.9656 132.608 28.0701 132.608 26.9656C132.608 25.861 131.713 24.9656 130.608 24.9656C129.504 24.9656 128.608 25.861 128.608 26.9656C128.608 28.0701 129.504 28.9656 130.608 28.9656ZM148.608 26.9656C148.608 28.0701 147.713 28.9656 146.608 28.9656C145.504 28.9656 144.608 28.0701 144.608 26.9656C144.608 25.861 145.504 24.9656 146.608 24.9656C147.713 24.9656 148.608 25.861 148.608 26.9656ZM162.608 28.9656C163.713 28.9656 164.608 28.0701 164.608 26.9656C164.608 25.861 163.713 24.9656 162.608 24.9656C161.504 24.9656 160.608 25.861 160.608 26.9656C160.608 28.0701 161.504 28.9656 162.608 28.9656ZM180.608 26.9656C180.608 28.0701 179.713 28.9656 178.608 28.9656C177.504 28.9656 176.608 28.0701 176.608 26.9656C176.608 25.861 177.504 24.9656 178.608 24.9656C179.713 24.9656 180.608 25.861 180.608 26.9656ZM194.608 28.9656C195.713 28.9656 196.608 28.0701 196.608 26.9656C196.608 25.861 195.713 24.9656 194.608 24.9656C193.504 24.9656 192.608 25.861 192.608 26.9656C192.608 28.0701 193.504 28.9656 194.608 28.9656ZM42.6083 -3.03442C43.7129 -3.03442 44.6083 -3.92985 44.6083 -5.03442C44.6083 -6.13899 43.7129 -7.03442 42.6083 -7.03442C41.5038 -7.03442 40.6083 -6.13899 40.6083 -5.03442C40.6083 -3.92985 41.5038 -3.03442 42.6083 -3.03442ZM60.6083 -5.03442C60.6083 -3.92985 59.7129 -3.03442 58.6083 -3.03442C57.5038 -3.03442 56.6083 -3.92985 56.6083 -5.03442C56.6083 -6.13899 57.5038 -7.03442 58.6083 -7.03442C59.7129 -7.03442 60.6083 -6.13899 60.6083 -5.03442ZM74.6083 -3.03442C75.7129 -3.03442 76.6083 -3.92985 76.6083 -5.03442C76.6083 -6.13899 75.7129 -7.03442 74.6083 -7.03442C73.5038 -7.03442 72.6083 -6.13899 72.6083 -5.03442C72.6083 -3.92985 73.5038 -3.03442 74.6083 -3.03442ZM92.6083 -5.03442C92.6083 -3.92985 91.7129 -3.03442 90.6083 -3.03442C89.5038 -3.03442 88.6083 -3.92985 88.6083 -5.03442C88.6083 -6.13899 89.5038 -7.03442 90.6083 -7.03442C91.7129 -7.03442 92.6083 -6.13899 92.6083 -5.03442Z" fill="#E64E00"/>
<path fill-rule="evenodd" clip-rule="evenodd" d="M116.608 58.9656C116.608 60.0701 115.713 60.9656 114.608 60.9656C113.504 60.9656 112.608 60.0701 112.608 58.9656C112.608 57.861 113.504 56.9656 114.608 56.9656C115.713 56.9656 116.608 57.861 116.608 58.9656ZM114.608 76.9656C115.713 76.9656 116.608 76.0701 116.608 74.9656C116.608 73.861 115.713 72.9656 114.608 72.9656C113.504 72.9656 112.608 73.861 112.608 74.9656C112.608 76.0701 113.504 76.9656 114.608 76.9656ZM130.608 76.9656C131.713 76.9656 132.608 76.0701 132.608 74.9656C132.608 73.861 131.713 72.9656 130.608 72.9656C129.504 72.9656 128.608 73.861 128.608 74.9656C128.608 76.0701 129.504 76.9656 130.608 76.9656ZM148.608 74.9656C148.608 76.0701 147.713 76.9656 146.608 76.9656C145.504 76.9656 144.608 76.0701 144.608 74.9656C144.608 73.861 145.504 72.9656 146.608 72.9656C147.713 72.9656 148.608 73.861 148.608 74.9656ZM162.608 76.9656C163.713 76.9656 164.608 76.0701 164.608 74.9656C164.608 73.861 163.713 72.9656 162.608 72.9656C161.504 72.9656 160.608 73.861 160.608 74.9656C160.608 76.0701 161.504 76.9656 162.608 76.9656ZM180.608 74.9656C180.608 76.0701 179.713 76.9656 178.608 76.9656C177.504 76.9656 176.608 76.0701 176.608 74.9656C176.608 73.861 177.504 72.9656 178.608 72.9656C179.713 72.9656 180.608 73.861 180.608 74.9656ZM194.608 76.9656C195.713 76.9656 196.608 76.0701 196.608 74.9656C196.608 73.861 195.713 72.9656 194.608 72.9656C193.504 72.9656 192.608 73.861 192.608 74.9656C192.608 76.0701 193.504 76.9656 194.608 76.9656ZM130.608 60.9656C131.713 60.9656 132.608 60.0701 132.608 58.9656C132.608 57.861 131.713 56.9656 130.608 56.9656C129.504 56.9656 128.608 57.861 128.608 58.9656C128.608 60.0701 129.504 60.9656 130.608 60.9656ZM148.608 58.9656C148.608 60.0701 147.713 60.9656 146.608 60.9656C145.504 60.9656 144.608 60.0701 144.608 58.9656C144.608 57.861 145.504 56.9656 146.608 56.9656C147.713 56.9656 148.608 57.861 148.608 58.9656ZM162.608 60.9656C163.713 60.9656 164.608 60.0701 164.608 58.9656C164.608 57.861 163.713 56.9656 162.608 56.9656C161.504 56.9656 160.608 57.861 160.608 58.9656C160.608 60.0701 161.504 60.9656 162.608 60.9656ZM180.608 58.9656C180.608 60.0701 179.713 60.9656 178.608 60.9656C177.504 60.9656 176.608 60.0701 176.608 58.9656C176.608 57.861 177.504 56.9656 178.608 56.9656C179.713 56.9656 180.608 57.861 180.608 58.9656ZM194.608 60.9656C195.713 60.9656 196.608 60.0701 196.608 58.9656C196.608 57.861 195.713 56.9656 194.608 56.9656C193.504 56.9656 192.608 57.861 192.608 58.9656C192.608 60.0701 193.504 60.9656 194.608 60.9656ZM10.6083 76.9656C11.7129 76.9656 12.6083 76.0701 12.6083 74.9656C12.6083 73.861 11.7129 72.9656 10.6083 72.9656C9.50377 72.9656 8.60834 73.861 8.60834 74.9656C8.60834 76.0701 9.50377 76.9656 10.6083 76.9656ZM26.6083 76.9656C27.7129 76.9656 28.6083 76.0701 28.6083 74.9656C28.6083 73.861 27.7129 72.9656 26.6083 72.9656C25.5038 72.9656 24.6083 73.861 24.6083 74.9656C24.6083 76.0701 25.5038 76.9656 26.6083 76.9656ZM44.6083 74.9656C44.6083 76.0701 43.7129 76.9656 42.6083 76.9656C41.5038 76.9656 40.6083 76.0701 40.6083 74.9656C40.6083 73.861 41.5038 72.9656 42.6083 72.9656C43.7129 72.9656 44.6083 73.861 44.6083 74.9656ZM58.6083 76.9656C59.7129 76.9656 60.6083 76.0701 60.6083 74.9656C60.6083 73.861 59.7129 72.9656 58.6083 72.9656C57.5038 72.9656 56.6083 73.861 56.6083 74.9656C56.6083 76.0701 57.5038 76.9656 58.6083 76.9656ZM76.6083 74.9656C76.6083 76.0701 75.7129 76.9656 74.6083 76.9656C73.5038 76.9656 72.6083 76.0701 72.6083 74.9656C72.6083 73.861 73.5038 72.9656 74.6083 72.9656C75.7129 72.9656 76.6083 73.861 76.6083 74.9656ZM90.6083 76.9656C91.7129 76.9656 92.6083 76.0701 92.6083 74.9656C92.6083 73.861 91.7129 72.9656 90.6083 72.9656C89.5038 72.9656 88.6083 73.861 88.6083 74.9656C88.6083 76.0701 89.5038 76.9656 90.6083 76.9656ZM10.6083 60.9656C11.7129 60.9656 12.6083 60.0701 12.6083 58.9656C12.6083 57.861 11.7129 56.9656 10.6083 56.9656C9.50377 56.9656 8.60834 57.861 8.60834 58.9656C8.60834 60.0701 9.50377 60.9656 10.6083 60.9656ZM20.6083 90.9656C20.6083 92.0701 19.7129 92.9656 18.6083 92.9656C17.5038 92.9656 16.6083 92.0701 16.6083 90.9656C16.6083 89.861 17.5038 88.9656 18.6083 88.9656C19.7129 88.9656 20.6083 89.861 20.6083 90.9656ZM18.6083 108.966C19.7129 108.966 20.6083 108.07 20.6083 106.966C20.6083 105.861 19.7129 104.966 18.6083 104.966C17.5038 104.966 16.6083 105.861 16.6083 106.966C16.6083 108.07 17.5038 108.966 18.6083 108.966ZM34.6083 108.966C35.7129 108.966 36.6083 108.07 36.6083 106.966C36.6083 105.861 35.7129 104.966 34.6083 104.966C33.5038 104.966 32.6083 105.861 32.6083 106.966C32.6083 108.07 33.5038 108.966 34.6083 108.966ZM52.6083 106.966C52.6083 108.07 51.7129 108.966 50.6083 108.966C49.5038 108.966 48.6083 108.07 48.6083 106.966C48.6083 105.861 49.5038 104.966 50.6083 104.966C51.7129 104.966 52.6083 105.861 52.6083 106.966ZM66.6083 108.966C67.7129 108.966 68.6083 108.07 68.6083 106.966C68.6083 105.861 67.7129 104.966 66.6083 104.966C65.5038 104.966 64.6083 105.861 64.6083 106.966C64.6083 108.07 65.5038 108.966 66.6083 108.966ZM84.6083 106.966C84.6083 108.07 83.7129 108.966 82.6083 108.966C81.5038 108.966 80.6083 108.07 80.6083 106.966C80.6083 105.861 81.5038 104.966 82.6083 104.966C83.7129 104.966 84.6083 105.861 84.6083 106.966ZM98.6083 108.966C99.7129 108.966 100.608 108.07 100.608 106.966C100.608 105.861 99.7129 104.966 98.6083 104.966C97.5038 104.966 96.6083 105.861 96.6083 106.966C96.6083 108.07 97.5038 108.966 98.6083 108.966ZM34.6083 92.9656C35.7129 92.9656 36.6083 92.0701 36.6083 90.9656C36.6083 89.861 35.7129 88.9656 34.6083 88.9656C33.5038 88.9656 32.6083 89.861 32.6083 90.9656C32.6083 92.0701 33.5038 92.9656 34.6083 92.9656ZM52.6083 90.9656C52.6083 92.0701 51.7129 92.9656 50.6083 92.9656C49.5038 92.9656 48.6083 92.0701 48.6083 90.9656C48.6083 89.861 49.5038 88.9656 50.6083 88.9656C51.7129 88.9656 52.6083 89.861 52.6083 90.9656ZM66.6083 92.9656C67.7129 92.9656 68.6083 92.0701 68.6083 90.9656C68.6083 89.861 67.7129 88.9656 66.6083 88.9656C65.5038 88.9656 64.6083 89.861 64.6083 90.9656C64.6083 92.0701 65.5038 92.9656 66.6083 92.9656ZM84.6083 90.9656C84.6083 92.0701 83.7129 92.9656 82.6083 92.9656C81.5038 92.9656 80.6083 92.0701 80.6083 90.9656C80.6083 89.861 81.5038 88.9656 82.6083 88.9656C83.7129 88.9656 84.6083 89.861 84.6083 90.9656ZM98.6083 92.9656C99.7129 92.9656 100.608 92.0701 100.608 90.9656C100.608 89.861 99.7129 88.9656 98.6083 88.9656C97.5038 88.9656 96.6083 89.861 96.6083 90.9656C96.6083 92.0701 97.5038 92.9656 98.6083 92.9656ZM26.6083 60.9656C27.7129 60.9656 28.6083 60.0701 28.6083 58.9656C28.6083 57.861 27.7129 56.9656 26.6083 56.9656C25.5038 56.9656 24.6083 57.861 24.6083 58.9656C24.6083 60.0701 25.5038 60.9656 26.6083 60.9656ZM116.608 90.9656C116.608 92.0701 115.713 92.9656 114.608 92.9656C113.504 92.9656 112.608 92.0701 112.608 90.9656C112.608 89.861 113.504 88.9656 114.608 88.9656C115.713 88.9656 116.608 89.861 116.608 90.9656ZM114.608 108.966C115.713 108.966 116.608 108.07 116.608 106.966C116.608 105.861 115.713 104.966 114.608 104.966C113.504 104.966 112.608 105.861 112.608 106.966C112.608 108.07 113.504 108.966 114.608 108.966ZM130.608 108.966C131.713 108.966 132.608 108.07 132.608 106.966C132.608 105.861 131.713 104.966 130.608 104.966C129.504 104.966 128.608 105.861 128.608 106.966C128.608 108.07 129.504 108.966 130.608 108.966ZM148.608 106.966C148.608 108.07 147.713 108.966 146.608 108.966C145.504 108.966 144.608 108.07 144.608 106.966C144.608 105.861 145.504 104.966 146.608 104.966C147.713 104.966 148.608 105.861 148.608 106.966ZM162.608 108.966C163.713 108.966 164.608 108.07 164.608 106.966C164.608 105.861 163.713 104.966 162.608 104.966C161.504 104.966 160.608 105.861 160.608 106.966C160.608 108.07 161.504 108.966 162.608 108.966ZM180.608 106.966C180.608 108.07 179.713 108.966 178.608 108.966C177.504 108.966 176.608 108.07 176.608 106.966C176.608 105.861 177.504 104.966 178.608 104.966C179.713 104.966 180.608 105.861 180.608 106.966ZM194.608 108.966C195.713 108.966 196.608 108.07 196.608 106.966C196.608 105.861 195.713 104.966 194.608 104.966C193.504 104.966 192.608 105.861 192.608 106.966C192.608 108.07 193.504 108.966 194.608 108.966ZM130.608 92.9656C131.713 92.9656 132.608 92.0701 132.608 90.9656C132.608 89.861 131.713 88.9656 130.608 88.9656C129.504 88.9656 128.608 89.861 128.608 90.9656C128.608 92.0701 129.504 92.9656 130.608 92.9656ZM148.608 90.9656C148.608 92.0701 147.713 92.9656 146.608 92.9656C145.504 92.9656 144.608 92.0701 144.608 90.9656C144.608 89.861 145.504 88.9656 146.608 88.9656C147.713 88.9656 148.608 89.861 148.608 90.9656ZM162.608 92.9656C163.713 92.9656 164.608 92.0701 164.608 90.9656C164.608 89.861 163.713 88.9656 162.608 88.9656C161.504 88.9656 160.608 89.861 160.608 90.9656C160.608 92.0701 161.504 92.9656 162.608 92.9656ZM180.608 90.9656C180.608 92.0701 179.713 92.9656 178.608 92.9656C177.504 92.9656 176.608 92.0701 176.608 90.9656C176.608 89.861 177.504 88.9656 178.608 88.9656C179.713 88.9656 180.608 89.861 180.608 90.9656ZM194.608 92.9656C195.713 92.9656 196.608 92.0701 196.608 90.9656C196.608 89.861 195.713 88.9656 194.608 88.9656C193.504 88.9656 192.608 89.861 192.608 90.9656C192.608 92.0701 193.504 92.9656 194.608 92.9656ZM42.6083 60.9656C43.7129 60.9656 44.6083 60.0701 44.6083 58.9656C44.6083 57.861 43.7129 56.9656 42.6083 56.9656C41.5038 56.9656 40.6083 57.861 40.6083 58.9656C40.6083 60.0701 41.5038 60.9656 42.6083 60.9656ZM60.6083 58.9656C60.6083 60.0701 59.7129 60.9656 58.6083 60.9656C57.5038 60.9656 56.6083 60.0701 56.6083 58.9656C56.6083 57.861 57.5038 56.9656 58.6083 56.9656C59.7129 56.9656 60.6083 57.861 60.6083 58.9656ZM74.6083 60.9656C75.7129 60.9656 76.6083 60.0701 76.6083 58.9656C76.6083 57.861 75.7129 56.9656 74.6083 56.9656C73.5038 56.9656 72.6083 57.861 72.6083 58.9656C72.6083 60.0701 73.5038 60.9656 74.6083 60.9656ZM92.6083 58.9656C92.6083 60.0701 91.7129 60.9656 90.6083 60.9656C89.5038 60.9656 88.6083 60.0701 88.6083 58.9656C88.6083 57.861 89.5038 56.9656 90.6083 56.9656C91.7129 56.9656 92.6083 57.861 92.6083 58.9656Z" fill="#E64E00"/>
</g>
</g>
</svg>
