<svg width="332" height="199" viewBox="0 0 332 199" fill="none" xmlns="http://www.w3.org/2000/svg">
<g opacity="0.2">
<mask id="mask0_2318_193" style="mask-type:luminance" maskUnits="userSpaceOnUse" x="87" y="-58" width="245" height="244">
<path d="M209.685 186C277.064 186 331.685 131.379 331.685 64C331.685 -3.37874 277.064 -58 209.685 -58C142.306 -58 87.6851 -3.37874 87.6851 64C87.6851 131.379 142.306 186 209.685 186Z" fill="white"/>
</mask>
<g mask="url(#mask0_2318_193)">
<path fill-rule="evenodd" clip-rule="evenodd" d="M252.211 0.443115C252.211 1.54768 251.316 2.44312 250.211 2.44312C249.107 2.44312 248.211 1.54768 248.211 0.443115C248.211 -0.661454 249.107 -1.55688 250.211 -1.55688C251.316 -1.55688 252.211 -0.661454 252.211 0.443115ZM250.211 18.4431C251.316 18.4431 252.211 17.5477 252.211 16.4431C252.211 15.3385 251.316 14.4431 250.211 14.4431C249.107 14.4431 248.211 15.3385 248.211 16.4431C248.211 17.5477 249.107 18.4431 250.211 18.4431ZM266.211 18.4431C267.316 18.4431 268.211 17.5477 268.211 16.4431C268.211 15.3385 267.316 14.4431 266.211 14.4431C265.107 14.4431 264.211 15.3385 264.211 16.4431C264.211 17.5477 265.107 18.4431 266.211 18.4431ZM284.211 16.4431C284.211 17.5477 283.316 18.4431 282.211 18.4431C281.107 18.4431 280.211 17.5477 280.211 16.4431C280.211 15.3385 281.107 14.4431 282.211 14.4431C283.316 14.4431 284.211 15.3385 284.211 16.4431ZM298.211 18.4431C299.316 18.4431 300.211 17.5477 300.211 16.4431C300.211 15.3385 299.316 14.4431 298.211 14.4431C297.107 14.4431 296.211 15.3385 296.211 16.4431C296.211 17.5477 297.107 18.4431 298.211 18.4431ZM316.211 16.4431C316.211 17.5477 315.316 18.4431 314.211 18.4431C313.107 18.4431 312.211 17.5477 312.211 16.4431C312.211 15.3385 313.107 14.4431 314.211 14.4431C315.316 14.4431 316.211 15.3385 316.211 16.4431ZM330.211 18.4431C331.316 18.4431 332.211 17.5477 332.211 16.4431C332.211 15.3385 331.316 14.4431 330.211 14.4431C329.107 14.4431 328.211 15.3385 328.211 16.4431C328.211 17.5477 329.107 18.4431 330.211 18.4431ZM266.211 2.44312C267.316 2.44312 268.211 1.54768 268.211 0.443115C268.211 -0.661454 267.316 -1.55688 266.211 -1.55688C265.107 -1.55688 264.211 -0.661454 264.211 0.443115C264.211 1.54768 265.107 2.44312 266.211 2.44312ZM284.211 0.443115C284.211 1.54768 283.316 2.44312 282.211 2.44312C281.107 2.44312 280.211 1.54768 280.211 0.443115C280.211 -0.661454 281.107 -1.55688 282.211 -1.55688C283.316 -1.55688 284.211 -0.661454 284.211 0.443115ZM298.211 2.44312C299.316 2.44312 300.211 1.54768 300.211 0.443115C300.211 -0.661454 299.316 -1.55688 298.211 -1.55688C297.107 -1.55688 296.211 -0.661454 296.211 0.443115C296.211 1.54768 297.107 2.44312 298.211 2.44312ZM316.211 0.443115C316.211 1.54768 315.316 2.44312 314.211 2.44312C313.107 2.44312 312.211 1.54768 312.211 0.443115C312.211 -0.661454 313.107 -1.55688 314.211 -1.55688C315.316 -1.55688 316.211 -0.661454 316.211 0.443115ZM330.211 2.44312C331.316 2.44312 332.211 1.54768 332.211 0.443115C332.211 -0.661454 331.316 -1.55688 330.211 -1.55688C329.107 -1.55688 328.211 -0.661454 328.211 0.443115C328.211 1.54768 329.107 2.44312 330.211 2.44312ZM146.211 18.4431C147.316 18.4431 148.211 17.5477 148.211 16.4431C148.211 15.3385 147.316 14.4431 146.211 14.4431C145.107 14.4431 144.211 15.3385 144.211 16.4431C144.211 17.5477 145.107 18.4431 146.211 18.4431ZM162.211 18.4431C163.316 18.4431 164.211 17.5477 164.211 16.4431C164.211 15.3385 163.316 14.4431 162.211 14.4431C161.107 14.4431 160.211 15.3385 160.211 16.4431C160.211 17.5477 161.107 18.4431 162.211 18.4431ZM180.211 16.4431C180.211 17.5477 179.316 18.4431 178.211 18.4431C177.107 18.4431 176.211 17.5477 176.211 16.4431C176.211 15.3385 177.107 14.4431 178.211 14.4431C179.316 14.4431 180.211 15.3385 180.211 16.4431ZM194.211 18.4431C195.316 18.4431 196.211 17.5477 196.211 16.4431C196.211 15.3385 195.316 14.4431 194.211 14.4431C193.107 14.4431 192.211 15.3385 192.211 16.4431C192.211 17.5477 193.107 18.4431 194.211 18.4431ZM212.211 16.4431C212.211 17.5477 211.316 18.4431 210.211 18.4431C209.107 18.4431 208.211 17.5477 208.211 16.4431C208.211 15.3385 209.107 14.4431 210.211 14.4431C211.316 14.4431 212.211 15.3385 212.211 16.4431ZM226.211 18.4431C227.316 18.4431 228.211 17.5477 228.211 16.4431C228.211 15.3385 227.316 14.4431 226.211 14.4431C225.107 14.4431 224.211 15.3385 224.211 16.4431C224.211 17.5477 225.107 18.4431 226.211 18.4431ZM146.211 2.44312C147.316 2.44312 148.211 1.54768 148.211 0.443115C148.211 -0.661454 147.316 -1.55688 146.211 -1.55688C145.107 -1.55688 144.211 -0.661454 144.211 0.443115C144.211 1.54768 145.107 2.44312 146.211 2.44312ZM156.211 32.4431C156.211 33.5477 155.316 34.4431 154.211 34.4431C153.107 34.4431 152.211 33.5477 152.211 32.4431C152.211 31.3385 153.107 30.4431 154.211 30.4431C155.316 30.4431 156.211 31.3385 156.211 32.4431ZM154.211 50.4431C155.316 50.4431 156.211 49.5477 156.211 48.4431C156.211 47.3385 155.316 46.4431 154.211 46.4431C153.107 46.4431 152.211 47.3385 152.211 48.4431C152.211 49.5477 153.107 50.4431 154.211 50.4431ZM170.211 50.4431C171.316 50.4431 172.211 49.5477 172.211 48.4431C172.211 47.3385 171.316 46.4431 170.211 46.4431C169.107 46.4431 168.211 47.3385 168.211 48.4431C168.211 49.5477 169.107 50.4431 170.211 50.4431ZM188.211 48.4431C188.211 49.5477 187.316 50.4431 186.211 50.4431C185.107 50.4431 184.211 49.5477 184.211 48.4431C184.211 47.3385 185.107 46.4431 186.211 46.4431C187.316 46.4431 188.211 47.3385 188.211 48.4431ZM202.211 50.4431C203.316 50.4431 204.211 49.5477 204.211 48.4431C204.211 47.3385 203.316 46.4431 202.211 46.4431C201.107 46.4431 200.211 47.3385 200.211 48.4431C200.211 49.5477 201.107 50.4431 202.211 50.4431ZM220.211 48.4431C220.211 49.5477 219.316 50.4431 218.211 50.4431C217.107 50.4431 216.211 49.5477 216.211 48.4431C216.211 47.3385 217.107 46.4431 218.211 46.4431C219.316 46.4431 220.211 47.3385 220.211 48.4431ZM234.211 50.4431C235.316 50.4431 236.211 49.5477 236.211 48.4431C236.211 47.3385 235.316 46.4431 234.211 46.4431C233.107 46.4431 232.211 47.3385 232.211 48.4431C232.211 49.5477 233.107 50.4431 234.211 50.4431ZM170.211 34.4431C171.316 34.4431 172.211 33.5477 172.211 32.4431C172.211 31.3385 171.316 30.4431 170.211 30.4431C169.107 30.4431 168.211 31.3385 168.211 32.4431C168.211 33.5477 169.107 34.4431 170.211 34.4431ZM188.211 32.4431C188.211 33.5477 187.316 34.4431 186.211 34.4431C185.107 34.4431 184.211 33.5477 184.211 32.4431C184.211 31.3385 185.107 30.4431 186.211 30.4431C187.316 30.4431 188.211 31.3385 188.211 32.4431ZM202.211 34.4431C203.316 34.4431 204.211 33.5477 204.211 32.4431C204.211 31.3385 203.316 30.4431 202.211 30.4431C201.107 30.4431 200.211 31.3385 200.211 32.4431C200.211 33.5477 201.107 34.4431 202.211 34.4431ZM220.211 32.4431C220.211 33.5477 219.316 34.4431 218.211 34.4431C217.107 34.4431 216.211 33.5477 216.211 32.4431C216.211 31.3385 217.107 30.4431 218.211 30.4431C219.316 30.4431 220.211 31.3385 220.211 32.4431ZM234.211 34.4431C235.316 34.4431 236.211 33.5477 236.211 32.4431C236.211 31.3385 235.316 30.4431 234.211 30.4431C233.107 30.4431 232.211 31.3385 232.211 32.4431C232.211 33.5477 233.107 34.4431 234.211 34.4431ZM162.211 2.44312C163.316 2.44312 164.211 1.54768 164.211 0.443115C164.211 -0.661454 163.316 -1.55688 162.211 -1.55688C161.107 -1.55688 160.211 -0.661454 160.211 0.443115C160.211 1.54768 161.107 2.44312 162.211 2.44312ZM252.211 32.4431C252.211 33.5477 251.316 34.4431 250.211 34.4431C249.107 34.4431 248.211 33.5477 248.211 32.4431C248.211 31.3385 249.107 30.4431 250.211 30.4431C251.316 30.4431 252.211 31.3385 252.211 32.4431ZM250.211 50.4431C251.316 50.4431 252.211 49.5477 252.211 48.4431C252.211 47.3385 251.316 46.4431 250.211 46.4431C249.107 46.4431 248.211 47.3385 248.211 48.4431C248.211 49.5477 249.107 50.4431 250.211 50.4431ZM266.211 50.4431C267.316 50.4431 268.211 49.5477 268.211 48.4431C268.211 47.3385 267.316 46.4431 266.211 46.4431C265.107 46.4431 264.211 47.3385 264.211 48.4431C264.211 49.5477 265.107 50.4431 266.211 50.4431ZM284.211 48.4431C284.211 49.5477 283.316 50.4431 282.211 50.4431C281.107 50.4431 280.211 49.5477 280.211 48.4431C280.211 47.3385 281.107 46.4431 282.211 46.4431C283.316 46.4431 284.211 47.3385 284.211 48.4431ZM298.211 50.4431C299.316 50.4431 300.211 49.5477 300.211 48.4431C300.211 47.3385 299.316 46.4431 298.211 46.4431C297.107 46.4431 296.211 47.3385 296.211 48.4431C296.211 49.5477 297.107 50.4431 298.211 50.4431ZM316.211 48.4431C316.211 49.5477 315.316 50.4431 314.211 50.4431C313.107 50.4431 312.211 49.5477 312.211 48.4431C312.211 47.3385 313.107 46.4431 314.211 46.4431C315.316 46.4431 316.211 47.3385 316.211 48.4431ZM330.211 50.4431C331.316 50.4431 332.211 49.5477 332.211 48.4431C332.211 47.3385 331.316 46.4431 330.211 46.4431C329.107 46.4431 328.211 47.3385 328.211 48.4431C328.211 49.5477 329.107 50.4431 330.211 50.4431ZM266.211 34.4431C267.316 34.4431 268.211 33.5477 268.211 32.4431C268.211 31.3385 267.316 30.4431 266.211 30.4431C265.107 30.4431 264.211 31.3385 264.211 32.4431C264.211 33.5477 265.107 34.4431 266.211 34.4431ZM284.211 32.4431C284.211 33.5477 283.316 34.4431 282.211 34.4431C281.107 34.4431 280.211 33.5477 280.211 32.4431C280.211 31.3385 281.107 30.4431 282.211 30.4431C283.316 30.4431 284.211 31.3385 284.211 32.4431ZM298.211 34.4431C299.316 34.4431 300.211 33.5477 300.211 32.4431C300.211 31.3385 299.316 30.4431 298.211 30.4431C297.107 30.4431 296.211 31.3385 296.211 32.4431C296.211 33.5477 297.107 34.4431 298.211 34.4431ZM316.211 32.4431C316.211 33.5477 315.316 34.4431 314.211 34.4431C313.107 34.4431 312.211 33.5477 312.211 32.4431C312.211 31.3385 313.107 30.4431 314.211 30.4431C315.316 30.4431 316.211 31.3385 316.211 32.4431ZM330.211 34.4431C331.316 34.4431 332.211 33.5477 332.211 32.4431C332.211 31.3385 331.316 30.4431 330.211 30.4431C329.107 30.4431 328.211 31.3385 328.211 32.4431C328.211 33.5477 329.107 34.4431 330.211 34.4431ZM178.211 2.44312C179.316 2.44312 180.211 1.54768 180.211 0.443115C180.211 -0.661454 179.316 -1.55688 178.211 -1.55688C177.107 -1.55688 176.211 -0.661454 176.211 0.443115C176.211 1.54768 177.107 2.44312 178.211 2.44312ZM196.211 0.443115C196.211 1.54768 195.316 2.44312 194.211 2.44312C193.107 2.44312 192.211 1.54768 192.211 0.443115C192.211 -0.661454 193.107 -1.55688 194.211 -1.55688C195.316 -1.55688 196.211 -0.661454 196.211 0.443115ZM210.211 2.44312C211.316 2.44312 212.211 1.54768 212.211 0.443115C212.211 -0.661454 211.316 -1.55688 210.211 -1.55688C209.107 -1.55688 208.211 -0.661454 208.211 0.443115C208.211 1.54768 209.107 2.44312 210.211 2.44312ZM228.211 0.443115C228.211 1.54768 227.316 2.44312 226.211 2.44312C225.107 2.44312 224.211 1.54768 224.211 0.443115C224.211 -0.661454 225.107 -1.55688 226.211 -1.55688C227.316 -1.55688 228.211 -0.661454 228.211 0.443115Z" fill="#FF6B1F"/>
</g>
</g>
<path opacity="0.1" d="M221 -25.5C221 76.3965 138.397 159 36.5 159C-65.3965 159 -148 76.3965 -148 -25.5C-148 -127.397 -65.3965 -210 36.5 -210C138.397 -210 221 -127.397 221 -25.5Z" stroke="#FF6B1F" stroke-width="80"/>
</svg>
