<svg width="25" height="25" viewBox="0 0 25 25" fill="none" xmlns="http://www.w3.org/2000/svg">
<path fill-rule="evenodd" clip-rule="evenodd" d="M12.5 25C5.59644 25 0 19.4036 0 12.5C9.53674e-07 5.59644 5.59644 0 12.5 0C19.4036 0 25 5.59644 25 12.5C24.9908 19.3994 19.3999 24.9905 12.5003 25L12.5 25ZM23.042 14.21C20.8837 13.5825 18.6157 13.427 16.392 13.754C17.2996 16.2275 17.9938 18.7741 18.467 21.366C20.9143 19.7139 22.5708 17.1245 23.045 14.21L23.042 14.21ZM16.672 22.343C16.1693 19.579 15.4056 16.8688 14.391 14.249L14.322 14.27C8.291 16.37 6.135 20.546 5.947 20.937C8.99839 23.32 13.1027 23.8591 16.666 22.345L16.672 22.343ZM4.572 19.656C6.58365 16.3921 9.64355 13.9076 13.251 12.609C13.392 12.562 13.532 12.522 13.673 12.484C13.402 11.875 13.111 11.268 12.806 10.672C9.23677 11.6922 5.54115 12.2022 1.82901 12.187L1.829 12.512C1.82696 15.1496 2.8047 17.6944 4.57261 19.6526L4.572 19.656ZM2.047 10.328C5.37921 10.3113 8.69602 9.87448 11.919 9.02801C10.711 6.90016 9.38948 4.83885 7.96002 2.85303C4.92833 4.27958 2.7399 7.04387 2.047 10.322L2.047 10.328ZM10 2.138C11.4612 4.13275 12.7911 6.22053 13.981 8.38808C16.1792 7.66706 18.1233 6.32838 19.581 4.532C16.9732 2.21108 13.3937 1.31517 10 2.134V2.138ZM20.766 5.766C19.1757 7.66212 17.1198 9.11222 14.8 9.974C15.05 10.484 15.29 11 15.508 11.522C15.591 11.71 15.664 11.897 15.737 12.074C18.2193 11.8168 20.7261 11.9328 23.174 12.418C23.1586 9.992 22.309 7.64533 20.7679 5.77187L20.766 5.766Z" fill="#333333"/>
</svg>
