<svg width="614" height="629" viewBox="0 0 614 629" fill="none" xmlns="http://www.w3.org/2000/svg">
<g clip-path="url(#clip0_1_315)">
<path d="M370.942 572.872H368.241C360.959 572.872 355.057 566.975 355.057 559.7V536.05C355.057 528.774 360.959 522.877 368.241 522.877H370.942C378.224 522.877 384.126 528.774 384.126 536.05V559.7C384.126 566.975 378.224 572.872 370.942 572.872Z" fill="#F79C74" stroke="#1A1A1A" stroke-width="2" stroke-miterlimit="10" stroke-linecap="round" stroke-linejoin="round"/>
<path d="M416.006 572.872H413.305C406.023 572.872 400.121 566.975 400.121 559.7V484.885C400.121 477.61 406.023 471.713 413.305 471.713H416.006C423.288 471.713 429.19 477.61 429.19 484.885V559.7C429.19 566.975 423.288 572.872 416.006 572.872Z" fill="#F79C74" stroke="#1A1A1A" stroke-width="2" stroke-miterlimit="10" stroke-linecap="round" stroke-linejoin="round"/>
<path d="M461.071 572.872H458.369C451.087 572.872 445.185 566.975 445.185 559.7V437.359C445.185 430.084 451.087 424.187 458.369 424.187H461.071C468.352 424.187 474.254 430.084 474.254 437.359V559.7C474.254 566.975 468.352 572.872 461.071 572.872Z" fill="#F79C74" stroke="#1A1A1A" stroke-width="2" stroke-miterlimit="10" stroke-linecap="round" stroke-linejoin="round"/>
<path d="M506.135 572.872H503.433C496.151 572.872 490.249 566.975 490.249 559.7V456.633C490.249 449.358 496.151 443.461 503.433 443.461H506.135C513.416 443.461 519.318 449.358 519.318 456.633V559.7C519.318 566.975 513.416 572.872 506.135 572.872Z" fill="#F79C74" stroke="#1A1A1A" stroke-width="2" stroke-miterlimit="10" stroke-linecap="round" stroke-linejoin="round"/>
<path d="M551.199 572.872H548.497C541.215 572.872 535.314 566.975 535.314 559.7V382.537C535.314 375.261 541.215 369.365 548.497 369.365H551.199C558.48 369.365 564.382 375.261 564.382 382.537V559.7C564.382 566.975 558.48 572.872 551.199 572.872Z" fill="#F79C74" stroke="#1A1A1A" stroke-width="2" stroke-miterlimit="10" stroke-linecap="round" stroke-linejoin="round"/>
<path d="M233.4 478.763C234.554 478.187 236.668 475.367 237.822 474.79C250.544 466.126 259.798 449.945 274.839 452.256C295.084 455.721 307.228 475.367 325.159 484.613C334.094 489.231 344.507 491.548 354.999 491.574C384.152 454.573 458.18 402.843 421.3 372.578C374.709 334.35 290.598 370.444 290.598 370.444C290.598 370.444 184.842 384.036 195.974 454.463C199.594 477.359 184.06 488.696 162.194 496.417C187.37 506.612 212.027 494.389 233.4 478.763Z" fill="#1A1A1A" stroke="#1A1A1A" stroke-width="2" stroke-miterlimit="10" stroke-linecap="round" stroke-linejoin="round"/>
<path d="M457.577 560.313C410.162 563.61 350.787 550.841 344.14 517.069C342.755 510.03 347.324 501.313 354.994 491.574C344.502 491.548 334.094 489.226 325.154 484.613C307.223 475.367 295.078 455.726 274.833 452.256C259.798 449.944 250.544 466.12 237.817 474.79C236.511 475.854 234.548 478.187 233.394 478.763C212.016 494.389 187.36 506.612 162.184 496.417C116.778 512.451 44.0568 512.881 58.662 568.757C80.3074 651.544 241.725 616.325 302.953 615.094C364.18 613.862 539.206 658.337 591.153 591.616C616.418 559.176 504.996 557.016 457.577 560.313Z" fill="white" stroke="#1A1A1A" stroke-width="2" stroke-miterlimit="10" stroke-linecap="round" stroke-linejoin="round"/>
<path d="M302.963 378.27C403.84 378.27 485.617 296.581 485.617 195.813C485.617 95.0446 403.84 13.3557 302.963 13.3557C202.086 13.3557 120.309 95.0446 120.309 195.813C120.309 296.581 202.086 378.27 302.963 378.27Z" fill="white" stroke="#1A1A1A" stroke-width="2" stroke-miterlimit="10" stroke-linecap="round" stroke-linejoin="round"/>
<path d="M302.963 328.228C376.173 328.228 435.522 268.944 435.522 195.813C435.522 122.682 376.173 63.3979 302.963 63.3979C229.753 63.3979 170.404 122.682 170.404 195.813C170.404 268.944 229.753 328.228 302.963 328.228Z" fill="#F79C74" stroke="#1A1A1A" stroke-width="2" stroke-miterlimit="10" stroke-linecap="round" stroke-linejoin="round"/>
<path d="M302.963 279.627C349.303 279.627 386.87 242.102 386.87 195.813C386.87 149.523 349.303 111.999 302.963 111.999C256.623 111.999 219.057 149.523 219.057 195.813C219.057 242.102 256.623 279.627 302.963 279.627Z" fill="white" stroke="#1A1A1A" stroke-width="6" stroke-miterlimit="10" stroke-linecap="round" stroke-linejoin="round"/>
<path d="M302.963 234.528C324.369 234.528 341.721 217.195 341.721 195.813C341.721 174.431 324.369 157.098 302.963 157.098C281.557 157.098 264.205 174.431 264.205 195.813C264.205 217.195 281.557 234.528 302.963 234.528Z" fill="#F79C74" stroke="#1A1A1A" stroke-width="2" stroke-miterlimit="10" stroke-linecap="round" stroke-linejoin="round"/>
<path d="M302.963 210.673C311.18 210.673 317.841 204.02 317.841 195.813C317.841 187.606 311.18 180.953 302.963 180.953C294.746 180.953 288.085 187.606 288.085 195.813C288.085 204.02 294.746 210.673 302.963 210.673Z" fill="white" stroke="#1A1A1A" stroke-width="2" stroke-miterlimit="10" stroke-linecap="round" stroke-linejoin="round"/>
<path d="M50.7959 469.302C63.0231 462.253 69.1176 449.928 64.4084 441.774C59.6992 433.619 45.9695 432.723 33.7423 439.772C21.5152 446.821 15.4206 459.146 20.1298 467.301C24.839 475.455 38.5687 476.352 50.7959 469.302Z" fill="white" stroke="#1A1A1A" stroke-width="2" stroke-miterlimit="10" stroke-linecap="round" stroke-linejoin="round"/>
<path d="M493.822 287.233L498.045 297.915C500.61 299.147 502.153 299.891 504.718 301.123L515.709 297.758C518.793 301.626 518.951 301.82 522.036 305.689L516.307 315.643C516.942 318.415 517.319 320.082 517.954 322.855L527.439 329.344C526.337 334.167 526.28 334.408 525.178 339.23L513.815 340.965C512.042 343.187 510.972 344.524 509.198 346.752L510.032 358.205C505.573 360.349 505.348 360.459 500.889 362.603L492.447 354.808C489.599 354.808 487.889 354.808 485.04 354.808L476.599 362.603C472.14 360.459 471.914 360.349 467.455 358.205L468.289 346.752C466.516 344.529 465.446 343.193 463.673 340.965L452.309 339.23C451.208 334.408 451.15 334.167 450.048 329.344L459.533 322.855C460.168 320.082 460.546 318.415 461.181 315.643L455.452 305.689C458.537 301.82 458.694 301.626 461.779 297.758L472.769 301.123C475.335 299.891 476.877 299.147 479.442 297.915L483.666 287.233C488.623 287.233 488.87 287.233 493.822 287.233Z" fill="white" stroke="#1A1A1A" stroke-width="2" stroke-miterlimit="10" stroke-linecap="round" stroke-linejoin="round"/>
<path d="M488.749 339.151C496.169 339.151 502.184 333.141 502.184 325.727C502.184 318.314 496.169 312.303 488.749 312.303C481.329 312.303 475.314 318.314 475.314 325.727C475.314 333.141 481.329 339.151 488.749 339.151Z" fill="#1A1A1A" stroke="#1A1A1A" stroke-width="2" stroke-miterlimit="10" stroke-linecap="round" stroke-linejoin="round"/>
<path d="M421.913 94.2868L446.444 96.7557L507.467 51.2475L480.67 48.7734L421.913 94.2868Z" fill="#1A1A1A" stroke="#1A1A1A" stroke-width="2" stroke-miterlimit="10" stroke-linecap="round" stroke-linejoin="round"/>
<path d="M479.327 41.1887C483.246 40.1246 487.469 46.4041 485.098 49.2871L305.366 197.731C299.113 202.401 294.716 195.535 299.317 190.864L479.327 41.1887Z" fill="white" stroke="#1A1A1A" stroke-width="2" stroke-miterlimit="10" stroke-linecap="round" stroke-linejoin="round"/>
<path d="M420.885 92.4313L425.418 67.5177L478.398 18.7073V46.9232L420.885 92.4313Z" fill="#1A1A1A" stroke="#1A1A1A" stroke-width="2" stroke-miterlimit="10" stroke-linecap="round" stroke-linejoin="round"/>
<path d="M564.917 230.57C580.554 230.57 593.231 227.559 593.231 223.845C593.231 220.131 580.554 217.12 564.917 217.12C549.28 217.12 536.604 220.131 536.604 223.845C536.604 227.559 549.28 230.57 564.917 230.57Z" fill="#1A1A1A" stroke="#1A1A1A" stroke-width="2" stroke-miterlimit="10" stroke-linecap="round" stroke-linejoin="round"/>
<path d="M585.393 181.01C585.393 184.753 584.386 188.259 582.628 191.279L582.613 191.315L569.314 220.417L564.917 226.115L560.521 220.417L547.222 191.315L547.207 191.279C545.449 188.265 544.442 184.758 544.442 181.01C544.442 169.714 553.607 160.552 564.917 160.552C576.228 160.552 585.393 169.714 585.393 181.01Z" fill="white" stroke="#1A1A1A" stroke-width="2" stroke-miterlimit="10" stroke-linecap="round" stroke-linejoin="round"/>
<path d="M564.912 186.362C567.873 186.362 570.274 183.966 570.274 181.01C570.274 178.054 567.873 175.658 564.912 175.658C561.951 175.658 559.551 178.054 559.551 181.01C559.551 183.966 561.951 186.362 564.912 186.362Z" fill="#1A1A1A" stroke="#1A1A1A" stroke-width="2" stroke-miterlimit="10" stroke-linecap="round" stroke-linejoin="round"/>
<path d="M576.527 355.815C582.942 355.815 588.142 350.621 588.142 344.215C588.142 337.808 582.942 332.615 576.527 332.615C570.112 332.615 564.912 337.808 564.912 344.215C564.912 350.621 570.112 355.815 576.527 355.815Z" fill="white" stroke="#1A1A1A" stroke-width="2" stroke-miterlimit="10" stroke-linecap="round" stroke-linejoin="round"/>
<path d="M89.9393 256.905C89.9393 256.905 64.375 326.1 70.151 342.574C75.9217 359.049 103.411 355.207 103.411 355.207L89.9393 256.905Z" fill="#FF6B1F" stroke="#1A1A1A" stroke-width="2" stroke-miterlimit="10" stroke-linecap="round" stroke-linejoin="round"/>
<path d="M259.473 543.776C261.041 539.86 261.041 539.855 261.041 539.855L250.733 529.697C250.733 529.697 248.498 531.452 245.634 533.989C248.057 539.373 253.56 542.586 259.473 543.776Z" fill="#1A1A1A" stroke="#1A1A1A" stroke-width="2" stroke-miterlimit="10" stroke-linecap="round" stroke-linejoin="round"/>
<path d="M259.473 543.776C253.561 542.586 248.052 539.367 245.639 533.99C240.372 538.655 232.975 545.967 233.421 549.877C234.108 555.915 240.702 590.925 251.835 596.554C262.007 600.947 261.32 588.314 260.218 581.317C259.116 574.314 255.134 553.861 256.645 550.836C257.925 547.644 258.833 545.385 259.473 543.776Z" fill="white" stroke="#1A1A1A" stroke-width="2" stroke-miterlimit="10" stroke-linecap="round" stroke-linejoin="round"/>
<path d="M465.703 515.806C468.043 513.474 469.344 510.543 469.984 507.404C465.063 504.73 460.598 500.726 460.598 500.726L454.277 516.928C454.277 516.928 454.581 519.266 455.116 522.164C459.439 522.625 463.216 518.789 465.703 515.806Z" fill="#1A1A1A" stroke="#1A1A1A" stroke-width="2" stroke-miterlimit="10" stroke-linecap="round" stroke-linejoin="round"/>
<path d="M511.04 529.146C503.071 524.476 479.432 511.162 473.383 508.966C472.26 508.557 471.112 508.017 469.989 507.404C469.344 510.544 468.043 513.468 465.708 515.806C463.221 518.789 459.444 522.626 455.121 522.164C455.83 526.012 456.937 530.855 458.269 532.58C460.604 535.599 465.005 538.482 479.574 537.659C494.142 536.836 517.094 548.918 521.768 546.858C526.432 544.798 519.014 533.817 511.04 529.146Z" fill="white" stroke="#1A1A1A" stroke-width="2" stroke-miterlimit="10" stroke-linecap="round" stroke-linejoin="round"/>
<path d="M155.773 434.283C155.773 434.283 157.835 460.339 222.981 449.782C288.127 439.226 308.393 434.283 308.393 434.283C308.393 434.283 387.079 492.769 450.573 519.538C463.352 517.478 467.89 509.244 462.943 500.181C443.155 485.352 354.921 396.805 326.471 396.805C298.021 396.805 192.06 414.102 192.06 414.102L155.773 434.283Z" fill="white" stroke="#1A1A1A" stroke-width="2" stroke-miterlimit="10" stroke-linecap="round" stroke-linejoin="round"/>
<path d="M114.129 367.97C114.129 367.97 116.191 444.991 164.843 450.757C213.496 456.523 300.078 415.748 300.078 415.748C300.078 415.748 253.487 475.88 247.716 531.893C260.087 547.544 264.21 539.304 264.21 539.304C264.21 539.304 350.383 445.4 343.783 409.154C337.189 372.908 305.025 362.199 241.945 358.084C194.94 354.787 194.94 354.787 194.94 354.787L114.129 367.97Z" fill="white" stroke="#1A1A1A" stroke-width="2" stroke-miterlimit="10" stroke-linecap="round" stroke-linejoin="round"/>
<path d="M114.607 374.81C114.607 374.81 131.342 380.22 154.43 376.414C177.518 372.609 205.658 369.207 207.72 354.793C209.472 353.351 209.472 353.351 209.472 353.351L203.182 347.895L113.746 365.58L114.607 374.81Z" fill="#1A1A1A" stroke="#1A1A1A" stroke-width="2" stroke-miterlimit="10" stroke-linecap="round" stroke-linejoin="round"/>
<path d="M115.572 210.228C115.572 210.228 98.6689 210.432 89.803 234.732C80.9371 259.033 84.1687 362.891 106.706 368.929C129.243 374.968 148.486 371.676 148.486 371.676C148.486 371.676 218.579 370.03 208.134 334.607C197.689 299.189 168.552 257.727 168.552 257.727L154.12 226.702C154.12 226.702 145.669 206.212 115.572 210.228Z" fill="#FF6B1F" stroke="#1A1A1A" stroke-width="2" stroke-miterlimit="10" stroke-linecap="round" stroke-linejoin="round"/>
<path d="M257.883 217.456C257.883 217.456 268.743 199.382 271.492 192.516C274.241 185.649 276.439 180.984 277.813 187.709C278.537 191.074 275.646 198.135 278.432 197.333C281.213 196.531 292.041 187.264 293.583 180.465C295.131 173.672 297.014 175.213 297.413 176.964C297.811 178.715 297.455 194.497 288.122 203.838C281.753 210.207 268.638 222.781 268.638 222.781L257.883 217.456Z" fill="white" stroke="#1A1A1A" stroke-width="2" stroke-miterlimit="10" stroke-linecap="round" stroke-linejoin="round"/>
<path d="M120.314 262.398C120.314 262.398 138.041 289.309 174.328 287.112C210.616 284.916 250.465 267.619 271.633 221.487C261.461 215.448 257.888 214.279 257.888 214.279C257.888 214.279 234.171 244.828 209.199 247.847C184.222 250.866 153.27 226.005 153.27 226.005" fill="#FF6B1F"/>
<path d="M120.314 262.398C120.314 262.398 138.041 289.309 174.328 287.112C210.616 284.916 250.465 267.619 271.633 221.487C261.461 215.448 257.888 214.279 257.888 214.279C257.888 214.279 234.171 244.828 209.199 247.847C184.222 250.866 153.27 226.005 153.27 226.005" stroke="#1A1A1A" stroke-width="2" stroke-miterlimit="10" stroke-linecap="round" stroke-linejoin="round"/>
<path d="M160.41 188.6C154.451 194.115 148.523 195.226 144.273 195.058C142.422 200.897 137.369 216.098 137.112 215.679C136.808 215.165 120.309 205.898 120.309 205.898L125.566 189.324L125.261 162.969L166.076 156.071C166.076 156.071 171.642 178.201 160.41 188.6Z" fill="white" stroke="#1A1A1A" stroke-width="2" stroke-miterlimit="10" stroke-linecap="round" stroke-linejoin="round"/>
<path d="M144.273 195.058C140.501 194.906 138.046 193.748 138.046 193.748C138.046 193.748 143.103 197.553 143.534 197.364C143.964 197.176 144.273 195.058 144.273 195.058Z" fill="white" stroke="#1A1A1A" stroke-width="2" stroke-miterlimit="10" stroke-linecap="round" stroke-linejoin="round"/>
<path d="M140.103 176.864C140.103 176.864 132.27 170.375 138.041 165.642C143.812 160.903 147.935 166.774 147.935 166.774C147.935 166.774 173.909 162.963 172.775 147.312C171.642 131.66 169.581 131.765 169.581 131.765C169.581 131.765 143.607 138.558 140.821 147.516C133.398 141.75 114.638 149.985 112.477 159.871C110.31 169.757 117.014 192.615 127.218 194.156C137.527 187.987 139.998 185.309 140.103 176.864Z" fill="#1A1A1A" stroke="#1A1A1A" stroke-width="2" stroke-miterlimit="10" stroke-linecap="round" stroke-linejoin="round"/>
<path d="M163.296 213.42C163.296 213.42 185.765 204.152 195.969 185.308C206.172 166.465 231.013 144.738 241.531 142.678C252.044 151.741 252.044 151.741 252.044 151.741C252.044 151.741 242.15 163.687 240.708 168.42C235.76 165.537 217.824 172.854 211.434 185.875C205.044 198.895 191.646 215.574 165.116 217.361C163.055 215.443 163.296 213.42 163.296 213.42Z" fill="white" stroke="#1A1A1A" stroke-width="2" stroke-miterlimit="10" stroke-linecap="round" stroke-linejoin="round"/>
<path d="M147.731 219.699C147.731 219.699 158.092 212.03 158.244 211.616C158.396 211.202 165.872 212.078 165.872 212.078L167.456 217.791L160.872 222.425L151.13 223.405L147.731 219.699Z" fill="white" stroke="#1A1A1A" stroke-width="2" stroke-miterlimit="10" stroke-linecap="round" stroke-linejoin="round"/>
<path d="M121.138 201.851C121.138 201.851 112.482 209.405 113.169 210.914C113.856 212.424 124.165 217.23 134.196 217.639C144.226 218.053 154.126 226.702 154.126 226.702C154.126 226.702 154.54 221.487 149.729 218.19C144.913 214.893 121.138 201.851 121.138 201.851Z" fill="white" stroke="#1A1A1A" stroke-width="2" stroke-miterlimit="10" stroke-linecap="round" stroke-linejoin="round"/>
<path d="M607.647 569.953C612.043 577.757 613.932 586.946 612.967 595.852C612.001 604.757 608.187 613.327 602.222 620.01" stroke="#1A1A1A" stroke-width="3" stroke-miterlimit="10" stroke-linecap="round" stroke-linejoin="round"/>
<path d="M91.3768 76.1088C95.1225 58.2766 103.899 41.5243 116.437 28.2891" stroke="#1A1A1A" stroke-width="3" stroke-miterlimit="10" stroke-linecap="round" stroke-linejoin="round"/>
<path d="M149.247 0.786133C143.817 2.52112 139.096 6.35802 136.284 11.3114" stroke="#1A1A1A" stroke-width="3" stroke-miterlimit="10" stroke-linecap="round" stroke-linejoin="round"/>
<path d="M248.85 555.47L259.567 556.293C259.567 556.293 246.405 563.605 247.108 563.605C247.816 563.605 259.567 563.605 259.567 563.605L252.354 569.371L260.396 570.812L255.245 574.518L258.13 575.341" stroke="#1A1A1A" stroke-width="2" stroke-miterlimit="10" stroke-linecap="round" stroke-linejoin="round"/>
<path d="M480.806 515.969L485.748 510.371L485.822 522.935L491.661 515.502L494.551 523.517L499.635 521.184L501.696 526.127L504.855 524.203" stroke="#1A1A1A" stroke-width="2" stroke-miterlimit="10" stroke-linecap="round" stroke-linejoin="round"/>
<path d="M170.41 381.562C170.41 381.562 181.337 392.27 170.41 412.587Z" fill="white"/>
<path d="M170.41 381.562C170.41 381.562 181.337 392.27 170.41 412.587" stroke="#1A1A1A" stroke-width="2" stroke-miterlimit="10" stroke-linecap="round" stroke-linejoin="round"/>
<path d="M535.256 115.814C545.793 115.814 554.336 107.282 554.336 96.7557C554.336 86.2299 545.793 77.697 535.256 77.697C524.718 77.697 516.176 86.2299 516.176 96.7557C516.176 107.282 524.718 115.814 535.256 115.814Z" fill="white" stroke="#1A1A1A" stroke-width="2" stroke-miterlimit="10" stroke-linecap="round" stroke-linejoin="round"/>
<path d="M535.256 113.12C544.301 113.12 551.634 105.794 551.634 96.7558C551.634 87.718 544.301 80.3914 535.256 80.3914C526.21 80.3914 518.878 87.718 518.878 96.7558C518.878 105.794 526.21 113.12 535.256 113.12Z" fill="white" stroke="#1A1A1A" stroke-width="2" stroke-miterlimit="10" stroke-linecap="round" stroke-linejoin="round"/>
<path d="M538.87 101.478C538.87 100.687 538.592 100.026 538.042 99.4813C537.485 98.9414 536.552 98.454 535.24 98.0137C533.409 97.4581 532.077 96.7295 531.243 95.8331C530.403 94.9368 529.989 93.7994 529.989 92.4156C529.989 91.0108 530.398 89.8524 531.216 88.9561C532.035 88.0545 533.163 87.5199 534.6 87.3469V84.5269H536.52V87.3574C537.963 87.5565 539.086 88.1593 539.888 89.171C540.691 90.1826 541.095 91.5664 541.095 93.3276H538.724C538.724 92.1116 538.435 91.1523 537.858 90.4342C537.281 89.7214 536.504 89.3649 535.529 89.3649C534.506 89.3649 533.724 89.627 533.184 90.1564C532.643 90.6858 532.37 91.4197 532.37 92.3684C532.37 93.2438 532.654 93.9409 533.226 94.4651C533.797 94.984 534.736 95.4557 536.048 95.8856C537.36 96.3101 538.377 96.7766 539.112 97.2903C539.846 97.7988 540.387 98.3963 540.733 99.0725C541.079 99.7487 541.252 100.545 541.252 101.452C541.252 102.904 540.817 104.068 539.946 104.954C539.075 105.839 537.853 106.358 536.279 106.526V108.984H534.375V106.526C532.78 106.379 531.526 105.813 530.618 104.823C529.711 103.832 529.26 102.485 529.26 100.787H531.641C531.641 101.982 531.956 102.899 532.58 103.538C533.205 104.183 534.096 104.503 535.245 104.503C536.368 104.503 537.255 104.23 537.9 103.69C538.55 103.156 538.87 102.417 538.87 101.478Z" fill="#1A1A1A" stroke="#1A1A1A" stroke-width="2" stroke-miterlimit="10" stroke-linecap="round" stroke-linejoin="round"/>
<path d="M30.8262 272.048C47.5613 272.048 61.1277 258.495 61.1277 241.777C61.1277 225.059 47.5613 211.506 30.8262 211.506C14.0911 211.506 0.524628 225.059 0.524628 241.777C0.524628 258.495 14.0911 272.048 30.8262 272.048Z" fill="white" stroke="#1A1A1A" stroke-width="2" stroke-miterlimit="10" stroke-linecap="round" stroke-linejoin="round"/>
<path d="M30.8262 267.765C45.1942 267.765 56.8417 256.13 56.8417 241.777C56.8417 227.424 45.1942 215.789 30.8262 215.789C16.4583 215.789 4.81075 227.424 4.81075 241.777C4.81075 256.13 16.4583 267.765 30.8262 267.765Z" fill="white" stroke="#1A1A1A" stroke-width="2" stroke-miterlimit="10" stroke-linecap="round" stroke-linejoin="round"/>
<path d="M36.5654 249.283C36.5654 248.03 36.1247 246.972 35.2434 246.117C34.362 245.258 32.8826 244.482 30.7947 243.785C27.8883 242.899 25.7741 241.746 24.4416 240.32C23.1091 238.894 22.4481 237.086 22.4481 234.895C22.4481 232.662 23.0986 230.827 24.3997 229.396C25.7007 227.965 27.4896 227.116 29.7717 226.844V222.367H32.8197V226.865C35.1122 227.179 36.8959 228.138 38.1707 229.747C39.4455 231.357 40.0855 233.558 40.0855 236.352H36.3188C36.3188 234.423 35.8624 232.892 34.9496 231.76C34.0368 230.628 32.8039 230.057 31.2458 230.057C29.6248 230.057 28.3815 230.476 27.5211 231.315C26.6607 232.153 26.2306 233.322 26.2306 234.827C26.2306 236.221 26.6817 237.327 27.5893 238.155C28.4969 238.983 29.992 239.733 32.0695 240.409C34.1469 241.085 35.7732 241.829 36.9379 242.637C38.1025 243.449 38.9629 244.393 39.5137 245.467C40.0646 246.542 40.3426 247.805 40.3426 249.246C40.3426 251.548 39.6501 253.403 38.2651 254.808C36.8802 256.213 34.9391 257.041 32.4472 257.303V261.208H29.4202V257.303C26.8811 257.072 24.898 256.171 23.4554 254.593C22.0179 253.02 21.2992 250.882 21.2992 248.188H25.0817C25.0817 250.08 25.58 251.542 26.5768 252.559C27.5736 253.581 28.9848 254.09 30.8104 254.09C32.5993 254.09 34.0001 253.66 35.023 252.8C36.0513 251.935 36.5654 250.767 36.5654 249.283Z" fill="#1A1A1A" stroke="#1A1A1A" stroke-width="2" stroke-miterlimit="10" stroke-linecap="round" stroke-linejoin="round"/>
</g>
<defs>
<clipPath id="clip0_1_315">
<rect width="614" height="629" fill="white"/>
</clipPath>
</defs>
</svg>
