<svg width="30" height="31" viewBox="0 0 30 31" fill="none" xmlns="http://www.w3.org/2000/svg">
<path fill-rule="evenodd" clip-rule="evenodd" d="M15 30.4243C23.2843 30.4243 30 23.7086 30 15.4243C30 7.14005 23.2843 0.424316 15 0.424316C6.71573 0.424316 0 7.14005 0 15.4243C0 23.7086 6.71573 30.4243 15 30.4243Z" fill="#E1306C"/>
<path d="M18.3333 8.75757H11.6666C9.8257 8.75757 8.33331 10.25 8.33331 12.0909V18.7576C8.33331 20.5985 9.8257 22.0909 11.6666 22.0909H18.3333C20.1743 22.0909 21.6666 20.5985 21.6666 18.7576V12.0909C21.6666 10.25 20.1743 8.75757 18.3333 8.75757Z" stroke="white" stroke-linecap="round" stroke-linejoin="round"/>
<path d="M17.6667 15.0043C17.7489 15.5591 17.6542 16.1258 17.3958 16.6236C17.1375 17.1215 16.7288 17.5252 16.2278 17.7774C15.7267 18.0296 15.159 18.1173 14.6052 18.0282C14.0514 17.9391 13.5398 17.6777 13.1432 17.281C12.7466 16.8844 12.4852 16.3729 12.3961 15.8191C12.3069 15.2653 12.3947 14.6975 12.6469 14.1965C12.8991 13.6955 13.3028 13.2868 13.8007 13.0284C14.2985 12.7701 14.8652 12.6753 15.42 12.7576C15.986 12.8415 16.5099 13.1052 16.9145 13.5098C17.319 13.9144 17.5828 14.4383 17.6667 15.0043Z" stroke="white" stroke-linecap="round" stroke-linejoin="round"/>
<path d="M18.6667 11.7576H18.6734" stroke="white" stroke-width="2" stroke-linecap="round" stroke-linejoin="round"/>
</svg>
