<svg width="25" height="25" viewBox="0 0 25 25" fill="none" xmlns="http://www.w3.org/2000/svg">
<path fill-rule="evenodd" clip-rule="evenodd" d="M12.5 0C9.1 0 8.68 0.016 7.347 0.075C6.30985 0.0964918 5.28376 0.292918 4.312 0.656C3.47836 0.970596 2.72345 1.4634 2.1 2.1C1.46288 2.72301 0.969988 3.47804 0.656 4.312C0.292417 5.28362 0.095973 6.30979 0.0749998 7.347C0.012 8.68 0 9.1 0 12.5C0 15.9 0.016 16.32 0.075 17.653C0.0967226 18.6898 0.293149 19.7156 0.656014 20.687C0.970742 21.5209 1.46352 22.2761 2.1 22.9C2.72435 23.5364 3.48035 24.0286 4.315 24.342C5.28651 24.7048 6.31221 24.9012 7.349 24.923C8.68 24.987 9.1 25 12.5 25C15.9 25 16.32 24.984 17.653 24.925C18.6897 24.9028 19.7154 24.7064 20.687 24.344C22.3664 23.695 23.694 22.3674 24.343 20.688C24.7059 19.7165 24.9023 18.6908 24.924 17.654C24.987 16.32 25 15.9 25 12.5C25 9.1 24.984 8.68 24.925 7.347C24.9029 6.31027 24.7065 5.28462 24.344 4.31304C24.0291 3.47923 23.5364 2.72403 22.9 2.1C22.2772 1.46263 21.5221 0.969697 20.688 0.656C19.7163 0.292605 18.6902 0.0961685 17.653 0.0750008C16.32 0.012 15.9 0 12.5 0ZM12.5 2.25C15.836 2.25 16.234 2.267 17.552 2.324C18.3444 2.33345 19.1293 2.47959 19.872 2.756C20.9641 3.17353 21.827 4.03605 22.245 5.128C22.5205 5.87091 22.6659 6.65571 22.675 7.448C22.734 8.767 22.748 9.163 22.748 12.5C22.748 15.837 22.732 16.234 22.671 17.552C22.6564 18.3445 22.508 19.1289 22.232 19.872C22.0289 20.4145 21.7094 20.9061 21.296 21.312C20.8918 21.7258 20.4006 22.0445 19.858 22.245C19.1123 22.5204 18.3249 22.6658 17.53 22.675C16.203 22.734 15.812 22.748 12.469 22.748C9.126 22.748 8.734 22.732 7.408 22.671C6.61253 22.6564 5.82519 22.508 5.079 22.232C4.53642 22.0325 4.0454 21.7141 3.642 21.3C3.22177 20.8978 2.89949 20.4044 2.7 19.858C2.4249 19.112 2.27717 18.325 2.263 17.53C2.22 16.218 2.2 15.813 2.2 12.484C2.2 9.155 2.217 8.749 2.264 7.42C2.27792 6.62572 2.42531 5.83942 2.7 5.09401C2.89562 4.54748 3.21692 4.05456 3.638 3.655C4.03805 3.23474 4.53133 2.91445 5.078 2.72C5.81857 2.44248 6.60124 2.29399 7.392 2.281C8.72 2.234 9.111 2.219 12.453 2.219L12.5 2.25ZM12.5 6.081C8.95488 6.081 6.081 8.95489 6.081 12.5C6.081 16.0451 8.95488 18.919 12.5 18.919C16.0451 18.919 18.919 16.0451 18.919 12.5C18.919 10.7965 18.2425 9.16375 17.0385 7.96008C15.8345 6.75641 14.2015 6.08047 12.499 6.081L12.5 6.081ZM12.5 16.666C10.8145 16.666 9.29501 15.6506 8.6501 14.0934C8.00518 12.5362 8.36188 10.7438 9.55384 9.55213C10.7458 8.36046 12.5383 8.00419 14.0953 8.64948C15.6524 9.29477 16.6674 10.8145 16.667 12.5C16.6675 13.6042 16.2289 14.6644 15.4475 15.4461C14.6662 16.2278 13.6063 16.667 12.501 16.667L12.5 16.666ZM20.673 5.828C20.673 6.65643 20.0014 7.328 19.173 7.328C18.3446 7.328 17.673 6.65643 17.673 5.828C17.673 4.99957 18.3446 4.328 19.173 4.328C20.0014 4.328 20.673 4.99957 20.673 5.828Z" fill="#333333"/>
</svg>
