<svg width="25" height="25" viewBox="0 0 25 25" fill="none" xmlns="http://www.w3.org/2000/svg">
<path fill-rule="evenodd" clip-rule="evenodd" d="M21.3 21.3001H17.6V15.5001C17.6 14.1171 17.572 12.3361 15.671 12.3361C13.741 12.3361 13.446 13.8411 13.446 15.3971V21.2971H9.746V9.37514H13.3V11.0001H13.348C14.0738 9.76036 15.4224 9.01998 16.858 9.07314C20.609 9.07314 21.303 11.5421 21.303 14.7551V21.3001H21.3ZM5.559 7.74314C4.37172 7.74314 3.40918 6.78075 3.409 5.59347C3.40882 4.40619 4.37105 3.44351 5.55833 3.44314C6.74562 3.44277 7.70845 4.40486 7.709 5.59214C7.70981 6.16263 7.4836 6.71006 7.08026 7.11361C6.67693 7.51716 6.12961 7.74365 5.55906 7.74314H5.559ZM7.416 21.3001H3.7V9.37514H7.416V21.3001ZM23.151 0.000137935H1.845C0.838541 -0.0120884 0.0126247 0.793684 0 1.80014L1.19209e-07 23.2001C0.00579894 23.6835 0.203482 24.1448 0.549524 24.4824C0.895566 24.82 1.36159 25.0063 1.845 25.0001H23.145C24.154 25.0146 24.9841 24.2091 25 23.2001V1.80014C24.9836 0.792562 24.1556 -0.0121131 23.148 0.000138054L23.151 0.000137935Z" fill="#333333"/>
</svg>
