<svg width="605" height="584" viewBox="0 0 605 584" fill="none" xmlns="http://www.w3.org/2000/svg">
<g clip-path="url(#clip0_1_394)">
<path d="M65.5734 514.28C23.2111 501.617 -3.26177 461.964 0.919943 423.828C5.95358 377.892 54.737 340.769 108.242 351.466C153.068 377.741 197.894 404.016 242.719 430.286C275.535 383.279 330.389 359.866 381.076 370.845C430.901 381.634 456.99 421.38 462.539 430.286C469.593 392.492 501.275 366.791 533.657 368.261C564.283 369.653 596.763 395.402 595.726 426.408C594.879 451.69 572.164 467.862 568.572 470.344C400.904 484.993 233.241 499.636 65.5734 514.28Z" stroke="#1A1A1A" stroke-width="2" stroke-miterlimit="10" stroke-linecap="round" stroke-linejoin="round"/>
<path d="M73.3234 474.111C53.2278 479.123 29.744 491.407 28.269 514.368C28.7071 550.011 71.7364 558.041 100.634 555.89C189.121 557.472 278.661 548.634 366.589 560.178C401.853 566.144 436.008 578.194 471.565 582.039C504.42 585.591 537.581 582.044 570.436 578.496C577.68 577.712 585.084 576.89 591.656 573.741C613.675 563.317 605.083 538.667 583.453 533.718C572.271 530.773 560.281 531.693 549.265 528.17C518.406 517.565 529.228 484.637 558.188 485.002C566.181 485.45 573.615 489.275 581.54 490.424C599.212 493.48 610.102 475.444 593.17 465.166C453.543 445.397 309.953 461.998 169.391 465.579C136.531 465.599 105.399 465.107 73.3234 474.111Z" fill="white" stroke="#1A1A1A" stroke-width="2" stroke-miterlimit="10" stroke-linecap="round" stroke-linejoin="round"/>
<path d="M212.333 165.394V181.186L78.7465 171.652C78.7465 171.652 73.9708 160.332 75.2706 149.241L212.333 165.394Z" fill="#1A1A1A" stroke="#1A1A1A" stroke-width="2" stroke-miterlimit="10" stroke-linecap="round" stroke-linejoin="round"/>
<path d="M364.914 10.9792L309.963 105.378C277.78 103.081 220.097 136.393 212.333 165.394L75.2708 149.241C91.0045 43.07 240.777 -27.1365 364.914 10.9792Z" fill="white" stroke="#1A1A1A" stroke-width="2" stroke-miterlimit="10" stroke-linecap="round" stroke-linejoin="round"/>
<path d="M373.54 31.4192L314.553 115.141L309.963 105.378L364.914 10.9792L373.54 31.4192Z" fill="white" stroke="#1A1A1A" stroke-width="2" stroke-miterlimit="10" stroke-linecap="round" stroke-linejoin="round"/>
<path d="M314.553 115.14C273.754 116.936 232.808 146.438 212.328 181.186V165.394C220.092 136.393 277.775 103.081 309.958 105.378L314.553 115.14Z" fill="white" stroke="#1A1A1A" stroke-width="2" stroke-miterlimit="10" stroke-linecap="round" stroke-linejoin="round"/>
<path d="M308.668 364.392L231.518 521.171C109.961 475.026 43.4771 388.034 44.8791 250.677L192.291 226.13C201.462 259.948 214.567 290.413 234.716 314.864C252.728 336.73 276.373 353.787 307.884 364.139C308.147 364.221 308.405 364.304 308.668 364.392Z" fill="white" stroke="#1A1A1A" stroke-width="2" stroke-miterlimit="10" stroke-linecap="round" stroke-linejoin="round"/>
<path d="M318.584 371.57L261.686 522.461L231.518 521.171L308.668 364.392L318.584 371.57Z" fill="#1A1A1A" stroke="#1A1A1A" stroke-width="2" stroke-miterlimit="10" stroke-linecap="round" stroke-linejoin="round"/>
<path d="M234.721 314.864C214.567 290.414 201.467 259.948 192.295 226.13L206.807 239.766C206.807 239.766 211.154 259.938 218.281 280.486C222.784 293.46 228.397 306.585 234.721 314.864Z" fill="#1A1A1A" stroke="#1A1A1A" stroke-width="2" stroke-miterlimit="10" stroke-linecap="round" stroke-linejoin="round"/>
<path d="M524.9 245.222L413.405 257.573C411.955 225.935 402.983 198.969 384.528 177.882L447.458 90.8753C500.038 120.445 529.559 184.632 524.9 245.222Z" fill="white" stroke="#1A1A1A" stroke-width="2" stroke-miterlimit="10" stroke-linecap="round" stroke-linejoin="round"/>
<path d="M524.9 245.222L520.859 272.786H413.405V257.573L524.9 245.222Z" fill="#1A1A1A" stroke="#1A1A1A" stroke-width="2" stroke-miterlimit="10" stroke-linecap="round" stroke-linejoin="round"/>
<path d="M556.504 327.634C555.72 344.317 551.183 369.507 540.556 390.662L447.886 345.436C447.886 345.436 455.773 334.238 454.955 319.166L556.504 327.634Z" fill="white" stroke="#1A1A1A" stroke-width="2" stroke-miterlimit="10" stroke-linecap="round" stroke-linejoin="round"/>
<path d="M540.56 390.662L519.15 407.175L435.244 349.743L447.886 345.436L540.56 390.662Z" fill="#1A1A1A" stroke="#1A1A1A" stroke-width="2" stroke-miterlimit="10" stroke-linecap="round" stroke-linejoin="round"/>
<path d="M447.886 345.436L435.244 349.743C438.9 345.859 440.769 342.682 442.01 339.246C443.276 335.742 443.885 331.975 445.087 326.914C450.826 324.616 454.706 319.492 454.945 319.18L454.955 319.161C455.772 334.238 447.886 345.436 447.886 345.436Z" fill="white" stroke="#1A1A1A" stroke-width="2" stroke-miterlimit="10" stroke-linecap="round" stroke-linejoin="round"/>
<path d="M137.588 327.181C137.539 326.529 137.456 325.867 137.354 325.21C135.665 314.62 127.53 306.77 117.95 305.51C118.631 303.957 118.884 302.196 118.597 300.395C117.794 295.358 113.057 291.937 108.023 292.735C102.99 293.538 99.5578 298.263 100.361 303.3C100.726 305.593 101.909 307.544 103.559 308.921C96.4812 313.71 92.4309 322.68 93.94 332.126C94.3003 334.369 94.9428 336.486 95.8288 338.443C88.1908 334.014 82.534 326.31 81.0346 316.913C78.3864 300.312 89.7096 284.71 106.32 282.062C122.93 279.415 138.547 290.72 141.2 307.32C142.334 314.445 140.903 321.37 137.588 327.181Z" fill="white" stroke="#1A1A1A" stroke-width="2" stroke-miterlimit="10" stroke-linecap="round" stroke-linejoin="round"/>
<path d="M137.354 325.21C137.461 325.867 137.539 326.529 137.588 327.181C133.172 334.929 125.408 340.676 115.915 342.19C108.71 343.338 101.68 341.859 95.8289 338.452C94.9429 336.496 94.2955 334.379 93.9401 332.135C92.431 322.689 96.4813 313.72 103.56 308.931C101.909 307.554 100.726 305.602 100.361 303.31C99.5579 298.273 102.99 293.548 108.024 292.745C113.057 291.942 117.794 295.368 118.597 300.405C118.884 302.205 118.631 303.967 117.95 305.52C127.53 306.77 135.665 314.62 137.354 325.21Z" fill="white" stroke="#1A1A1A" stroke-width="2" stroke-miterlimit="10" stroke-linecap="round" stroke-linejoin="round"/>
<path d="M97.3233 416.275C97.5229 415.652 97.6982 415.01 97.854 414.363C100.303 403.919 95.7461 393.577 87.3583 388.788C88.5802 387.611 89.4759 386.078 89.8946 384.301C91.0581 379.337 87.9766 374.373 83.0111 373.215C78.0505 372.052 73.0801 375.128 71.9166 380.092C71.386 382.35 71.7414 384.603 72.7491 386.506C64.3808 388.258 57.2392 395.032 55.0535 404.342C54.5326 406.557 54.3281 408.756 54.4109 410.907C49.0219 403.919 46.7046 394.648 48.8758 385.382C52.7119 369.015 69.1029 358.858 85.4841 362.693C101.86 366.528 112.03 382.905 108.194 399.271C106.539 406.284 102.591 412.153 97.3233 416.275Z" fill="#1A1A1A" stroke="#1A1A1A" stroke-width="2" stroke-miterlimit="10" stroke-linecap="round" stroke-linejoin="round"/>
<path d="M97.8491 414.363C97.6982 415.01 97.5229 415.652 97.3185 416.275C90.2986 421.775 80.9324 424.154 71.571 421.964C64.4635 420.3 58.5244 416.27 54.3963 410.907C54.3135 408.761 54.5228 406.556 55.0389 404.342C57.2246 395.027 64.371 388.258 72.7345 386.506C71.7268 384.608 71.3714 382.35 71.902 380.092C73.0655 375.128 78.0359 372.052 82.9965 373.215C87.9571 374.378 91.0435 379.337 89.88 384.301C89.4613 386.077 88.5656 387.611 87.3437 388.788C95.7461 393.577 100.298 403.924 97.8491 414.363Z" fill="white" stroke="#1A1A1A" stroke-width="2" stroke-miterlimit="10" stroke-linecap="round" stroke-linejoin="round"/>
<path d="M196.852 416.256C196.735 415.735 196.594 415.219 196.438 414.703C193.858 406.401 186.419 401.038 178.587 401.135C178.957 399.811 178.952 398.371 178.514 396.955C177.287 393.008 173.091 390.803 169.142 392.03C165.194 393.256 162.989 397.446 164.216 401.393C164.776 403.189 165.949 404.62 167.434 405.535C162.308 410.192 160.098 417.862 162.395 425.269C162.941 427.026 163.705 428.651 164.644 430.121C158.004 427.449 152.571 421.921 150.283 414.553C146.238 401.539 153.521 387.708 166.543 383.669C179.565 379.624 193.41 386.895 197.455 399.914C199.189 405.486 198.843 411.209 196.852 416.256Z" fill="#1A1A1A" stroke="#1A1A1A" stroke-width="2" stroke-miterlimit="10" stroke-linecap="round" stroke-linejoin="round"/>
<path d="M196.438 414.703C196.599 415.219 196.74 415.74 196.852 416.256C194.204 422.982 188.639 428.491 181.196 430.802C175.544 432.554 169.737 432.18 164.645 430.121C163.705 428.651 162.946 427.026 162.395 425.269C160.093 417.862 162.303 410.197 167.434 405.535C165.949 404.62 164.776 403.189 164.216 401.393C162.989 397.446 165.199 393.256 169.143 392.03C173.091 390.803 177.287 393.008 178.514 396.955C178.952 398.366 178.952 399.807 178.587 401.135C186.42 401.038 193.853 406.396 196.438 414.703Z" fill="white" stroke="#1A1A1A" stroke-width="2" stroke-miterlimit="10" stroke-linecap="round" stroke-linejoin="round"/>
<path d="M487.591 80.7186C503.329 86.1011 515.504 98.5549 522.88 111.208" stroke="#1A1A1A" stroke-width="3" stroke-miterlimit="10" stroke-linecap="round" stroke-linejoin="round"/>
<path d="M548.286 105.339C557.657 122.479 562.759 141.289 563.168 160.177" stroke="#1A1A1A" stroke-width="3" stroke-miterlimit="10" stroke-linecap="round" stroke-linejoin="round"/>
<path d="M565.987 223.687C568.366 223.687 570.295 220.216 570.295 215.934C570.295 211.652 568.366 208.181 565.987 208.181C563.607 208.181 561.679 211.652 561.679 215.934C561.679 220.216 563.607 223.687 565.987 223.687Z" fill="white" stroke="#1A1A1A" stroke-width="2" stroke-miterlimit="10" stroke-linecap="round" stroke-linejoin="round"/>
<path d="M332.161 516.86C331.46 513.876 330.866 511.628 330.866 511.628L311.613 514.932C311.613 514.932 310.386 515.833 308.458 517.298C314.928 522.213 325.112 520.923 332.161 516.86Z" fill="#1A1A1A" stroke="#1A1A1A" stroke-width="2" stroke-miterlimit="10" stroke-linecap="round" stroke-linejoin="round"/>
<path d="M289.414 543.709C305.284 539.742 321.685 536.312 334.133 526.938C333.738 523.936 332.891 519.994 332.156 516.86C325.112 520.923 314.923 522.213 308.453 517.293C301.507 522.573 285.447 535.173 284.887 539.334C284.653 541.052 284.765 542.468 285.14 543.602C286.474 543.991 287.944 544.074 289.414 543.709Z" fill="white" stroke="#1A1A1A" stroke-width="2" stroke-miterlimit="10" stroke-linecap="round" stroke-linejoin="round"/>
<path d="M289.414 543.709C287.944 544.074 286.474 543.991 285.14 543.602C285.924 545.977 287.89 547.067 290.422 546.872C294.156 546.585 333.378 534.19 334.24 530.91C334.439 530.15 334.366 528.705 334.133 526.938C321.685 536.307 305.284 539.743 289.414 543.709Z" fill="#1A1A1A" stroke="#1A1A1A" stroke-width="2" stroke-miterlimit="10" stroke-linecap="round" stroke-linejoin="round"/>
<path d="M435.735 544.916C442.385 538.871 445.408 530.413 452.667 524.374C452.978 523.96 453.246 523.522 453.494 523.074C451.864 519.04 447.877 513.837 444.678 510.036C442.39 517.137 435.263 522.943 427.859 522.077C427.951 522.763 427.985 523.473 427.917 524.189C422.47 533.499 415.172 548.629 413.839 554.128C421.652 556.601 430.361 550.284 435.735 544.916Z" fill="white" stroke="#1A1A1A" stroke-width="2" stroke-miterlimit="10" stroke-linecap="round" stroke-linejoin="round"/>
<path d="M452.667 524.374C445.413 530.418 442.39 538.876 435.735 544.916C430.361 550.284 421.652 556.601 413.839 554.128C413.697 554.703 413.624 555.175 413.624 555.525C413.624 559.185 419.228 558.002 425.045 557.034C430.862 556.065 449.395 532.915 453.601 528.175C454.575 527.08 454.375 525.245 453.494 523.079C453.241 523.517 452.978 523.955 452.667 524.374Z" fill="#1A1A1A" stroke="#1A1A1A" stroke-width="2" stroke-miterlimit="10" stroke-linecap="round" stroke-linejoin="round"/>
<path d="M444.678 510.036C442.161 507.043 440.131 504.912 440.131 504.912L425.693 516.29C425.693 516.29 427.435 518.908 427.859 522.076C435.258 522.943 442.39 517.137 444.678 510.036Z" fill="#1A1A1A" stroke="#1A1A1A" stroke-width="2" stroke-miterlimit="10" stroke-linecap="round" stroke-linejoin="round"/>
<path d="M316.394 269.219C316.394 269.219 292.564 351.466 291.128 397.407C289.692 443.353 308.239 512.553 308.668 514.85C309.096 517.147 331.227 519.157 332.088 513.701C332.95 508.246 321.169 421.239 338.412 378.451C355.655 335.664 379.791 290.01 380.366 285.415C380.94 280.821 359.389 246.652 359.389 246.652L316.394 269.219Z" fill="white" stroke="#1A1A1A" stroke-width="2" stroke-miterlimit="10" stroke-linecap="round" stroke-linejoin="round"/>
<path d="M352.198 298.633C352.198 298.633 352.486 356.352 356.507 386.214C360.528 416.076 418.575 512.27 422.309 517.2C426.043 522.13 430.356 518.733 436.821 513.278C443.286 507.822 442.137 502.795 442.137 502.795C442.137 502.795 393.865 409.759 398.173 384.204C402.481 358.649 423.774 296.01 418.789 273.137C411.891 241.114 392.998 231.726 392.998 231.726L344.726 245.222" fill="white"/>
<path d="M352.198 298.633C352.198 298.633 352.486 356.352 356.507 386.214C360.528 416.076 418.575 512.27 422.309 517.2C426.043 522.13 430.356 518.733 436.821 513.278C443.286 507.822 442.137 502.795 442.137 502.795C442.137 502.795 393.865 409.759 398.173 384.204C402.481 358.649 423.774 296.01 418.789 273.137C411.891 241.114 392.998 231.726 392.998 231.726L344.726 245.222" stroke="#1A1A1A" stroke-width="2" stroke-miterlimit="10" stroke-linecap="round" stroke-linejoin="round"/>
<path d="M337.653 144.827C337.653 144.827 355.392 151.947 374.611 196.117C379.577 207.529 397.993 212.002 400.471 230.573C396.377 239.62 336.031 272.859 322.888 270.489C298.966 243.567 271.232 204.522 271.164 183.697C271.1 162.873 272.576 160.245 272.576 160.245C272.576 160.245 283.947 141.221 297.758 136.077C311.579 130.938 337.653 144.827 337.653 144.827Z" fill="#FF6B1F" stroke="#1A1A1A" stroke-width="2" stroke-miterlimit="10" stroke-linecap="round" stroke-linejoin="round"/>
<path d="M279.79 149.241C279.79 149.241 260.824 173.721 260.537 197.265C260.249 220.81 284.098 270.776 319.441 273.074C344.151 274.222 349.613 267.044 352.773 265.895C353.347 257.568 357.368 256.133 357.368 256.133C357.368 256.133 313.117 251.826 303.347 239.479C293.577 227.132 285.851 210.517 286.391 201.29" fill="#FF6B1F"/>
<path d="M279.79 149.241C279.79 149.241 260.824 173.721 260.537 197.265C260.249 220.81 284.098 270.776 319.441 273.074C344.151 274.222 349.613 267.044 352.773 265.895C353.347 257.568 357.368 256.133 357.368 256.133C357.368 256.133 313.117 251.826 303.347 239.479C293.577 227.132 285.851 210.517 286.391 201.29" stroke="#1A1A1A" stroke-width="2" stroke-miterlimit="10" stroke-linecap="round" stroke-linejoin="round"/>
<path d="M346.814 256.279C346.814 256.279 344.346 267.477 352.778 265.9C361.209 264.318 358.381 255.704 355.221 255.13C352.057 254.556 346.814 256.279 346.814 256.279Z" fill="#1A1A1A" stroke="#1A1A1A" stroke-width="2" stroke-miterlimit="10" stroke-linecap="round" stroke-linejoin="round"/>
<path d="M352.413 265.321C352.413 265.321 358.882 266.937 365.674 261.982C372.46 257.028 364.705 249.061 364.705 249.061C364.705 249.061 358.561 257.028 353.713 257.568C348.864 258.108 352.413 265.321 352.413 265.321Z" fill="white" stroke="#1A1A1A" stroke-width="2" stroke-miterlimit="10" stroke-linecap="round" stroke-linejoin="round"/>
<path d="M282.662 135.245C282.662 135.245 279.07 142.569 272.751 144.292C259.247 147.737 250.114 118.017 250.114 118.017L275.19 101.504C275.19 101.504 286.542 110.118 287.258 110.551C287.978 110.984 287.258 123.905 287.258 126.49C288.84 130.081 297.315 140.846 297.315 140.846L294.871 156.064L278.782 151.611L274.255 143.966" fill="white"/>
<path d="M282.662 135.245C282.662 135.245 279.07 142.569 272.751 144.292C259.247 147.737 250.114 118.017 250.114 118.017L275.19 101.504C275.19 101.504 286.542 110.118 287.258 110.551C287.978 110.984 287.258 123.905 287.258 126.49C288.84 130.081 297.315 140.846 297.315 140.846L294.871 156.064L278.782 151.611L274.255 143.966" stroke="#1A1A1A" stroke-width="2" stroke-miterlimit="10" stroke-linecap="round" stroke-linejoin="round"/>
<path d="M282.482 136.427C282.482 136.427 282.375 144.019 275.857 144.827C275.156 144.073 275.156 144.073 275.156 144.073L282.482 136.427Z" fill="#1A1A1A" stroke="#1A1A1A" stroke-width="2" stroke-miterlimit="10" stroke-linecap="round" stroke-linejoin="round"/>
<path d="M237.837 105.665C237.549 105.641 239.774 121.53 252.349 120.022C264.918 118.513 271.529 109.252 271.529 109.252C271.529 109.252 270.95 113.092 272.853 113.145C274.761 113.199 276.84 108.449 280.472 110.288C284.098 112.123 283.456 118.299 282.881 121.316C282.307 124.334 287.55 126.631 289.78 126.412C292.004 126.198 292.291 109.972 289.78 104.95C287.268 99.9224 283.1 90.593 274.333 96.0486C268.584 90.7342 252.495 95.0412 246.604 100.214C240.709 105.378 239.419 105.811 237.837 105.665Z" fill="#1A1A1A" stroke="#1A1A1A" stroke-width="2" stroke-miterlimit="10" stroke-linecap="round" stroke-linejoin="round"/>
<path d="M293.757 136.189C293.757 136.189 313.263 125.195 343.65 122.324C374.037 119.452 395.734 116.722 386.251 139.766C378.92 157.583 348.679 185.566 347.963 185.566C344.156 189.946 336.397 191.095 333.953 186.213C334.96 181.332 350.908 154.848 353.206 151.611C354.501 146.871 351.337 146.297 343.869 148.166C336.567 149.991 330.506 153.806 330.506 153.806" fill="#FF6B1F"/>
<path d="M293.757 136.189C293.757 136.189 313.263 125.195 343.65 122.324C374.037 119.452 395.734 116.722 386.251 139.766C378.92 157.583 348.679 185.566 347.963 185.566C344.156 189.946 336.397 191.095 333.953 186.213C334.96 181.332 350.908 154.848 353.206 151.611C354.501 146.871 351.337 146.297 343.869 148.166C336.567 149.991 330.506 153.806 330.506 153.806" stroke="#1A1A1A" stroke-width="2" stroke-miterlimit="10" stroke-linecap="round" stroke-linejoin="round"/>
<path d="M335.822 185.133C335.822 185.133 336.737 178.889 341.128 178.602C345.519 178.315 349.326 182.909 349.326 182.909C349.326 182.909 348.825 185.279 345.373 185.994C341.927 186.715 336.177 186.354 335.822 185.133Z" fill="#1A1A1A" stroke="#1A1A1A" stroke-width="2" stroke-miterlimit="10" stroke-linecap="round" stroke-linejoin="round"/>
<path d="M272.605 156.921L292.286 163.097L294.871 156.059L276.339 148.594C276.339 148.594 271.027 153.694 272.605 156.921Z" fill="white" stroke="#1A1A1A" stroke-width="2" stroke-miterlimit="10" stroke-linecap="round" stroke-linejoin="round"/>
<path d="M293.757 136.189C293.757 136.189 297.822 135.673 300.621 137.109C302.344 144.287 301.628 156.707 301.628 156.707L294.876 156.059C294.876 156.059 295.081 139.289 293.757 136.189Z" fill="white" stroke="#1A1A1A" stroke-width="2" stroke-miterlimit="10" stroke-linecap="round" stroke-linejoin="round"/>
<path d="M337.686 183.084C337.686 183.084 331.08 194.681 333.237 200.497C335.394 206.313 336.362 207.067 336.362 207.067L351.449 197.377C351.449 197.377 350.047 189.732 346.707 188.009C345.144 186.88 348.27 184.938 347.729 183.342C347.189 181.746 340.091 179.926 337.686 183.084Z" fill="white" stroke="#1A1A1A" stroke-width="2" stroke-miterlimit="10" stroke-linecap="round" stroke-linejoin="round"/>
<path d="M263.219 279.128C263.219 279.128 250.504 338.136 280.676 379.269" stroke="#1A1A1A" stroke-width="2" stroke-miterlimit="10" stroke-linecap="round" stroke-linejoin="round"/>
<path d="M257.83 273.224C257.83 273.224 235.846 335.678 267.741 391.718" stroke="#1A1A1A" stroke-width="2" stroke-miterlimit="10" stroke-linecap="round" stroke-linejoin="round"/>
<path d="M253.302 269.219C253.302 269.219 219.683 302.235 240.159 389.1" stroke="#1A1A1A" stroke-width="2" stroke-miterlimit="10" stroke-linecap="round" stroke-linejoin="round"/>
<path d="M249.428 266.538C249.428 266.538 204.388 309.063 221.626 377.979" stroke="#1A1A1A" stroke-width="2" stroke-miterlimit="10" stroke-linecap="round" stroke-linejoin="round"/>
<path d="M247.271 263.189C247.271 263.189 195.333 285.157 205.464 346.536" stroke="#1A1A1A" stroke-width="2" stroke-miterlimit="10" stroke-linecap="round" stroke-linejoin="round"/>
<path d="M308.692 231.751L267.099 257.812L243.605 261.467L263.467 287.313L271.188 264.27L338.646 255.87L334.23 250.916L331.212 248.01L278.734 255.008L312.139 234.763L308.692 231.751Z" fill="white" stroke="#1A1A1A" stroke-width="2" stroke-miterlimit="10" stroke-linecap="round" stroke-linejoin="round"/>
<path d="M303.089 231.751L357.398 190.613L377.225 245.246L348.562 265.993L303.089 231.751Z" fill="white" stroke="#1A1A1A" stroke-width="2" stroke-miterlimit="10" stroke-linecap="round" stroke-linejoin="round"/>
<path d="M380.37 262.089C380.37 262.089 379.694 279.308 399.609 281.04L380.37 262.089Z" fill="white"/>
<path d="M380.37 262.089C380.37 262.089 379.694 279.308 399.609 281.04" stroke="#1A1A1A" stroke-width="2" stroke-miterlimit="10" stroke-linecap="round" stroke-linejoin="round"/>
<path d="M458.523 142.34C458.523 148.526 455.271 151.597 451.479 151.597C447.823 151.597 444.659 148.662 444.615 142.749C444.615 136.88 447.823 133.585 451.708 133.585C455.811 133.585 458.523 136.744 458.523 142.34ZM447.774 142.613C447.682 146.36 449.084 149.202 451.566 149.202C454.185 149.202 455.359 146.404 455.359 142.52C455.359 138.953 454.322 135.975 451.566 135.975C449.084 135.975 447.774 138.909 447.774 142.613ZM451.206 163.924L468.459 133.585H470.99L453.738 163.924H451.206ZM477.625 154.487C477.625 160.673 474.374 163.744 470.625 163.744C466.969 163.744 463.805 160.809 463.761 154.94C463.761 149.027 466.969 145.727 470.854 145.727C474.963 145.727 477.625 148.891 477.625 154.487ZM466.877 154.76C466.833 158.507 468.279 161.349 470.718 161.349C473.337 161.349 474.51 158.551 474.51 154.668C474.51 151.1 473.473 148.122 470.718 148.122C468.23 148.122 466.877 151.056 466.877 154.76Z" fill="black"/>
</g>
<defs>
<clipPath id="clip0_1_394">
<rect width="605" height="584" fill="white"/>
</clipPath>
</defs>
</svg>
