<svg width="591" height="626" viewBox="0 0 591 626" fill="none" xmlns="http://www.w3.org/2000/svg">
<g clip-path="url(#clip0_1_470)">
<path d="M472.156 455.102C474.887 452.624 478.363 449.927 478.051 446.249C476.06 439.035 468.163 437.407 472.312 427.464C480.281 412.93 495.349 418.778 491.623 395.502C490.883 389.748 489.965 383.55 492.675 378.417C500.551 364.264 529.285 368.109 522.431 387.755C516.307 402.633 507.79 408.632 518.788 424.538C531.594 451.622 513.675 481.624 496.11 502.13C488.845 511.51 476.409 515.193 469.612 503.487C467.189 499.506 466.48 494.869 464.223 490.857C458.464 479.13 462.769 463.736 472.156 455.102Z" fill="white" stroke="#1A1A1A" stroke-width="2" stroke-miterlimit="10" stroke-linecap="round" stroke-linejoin="round"/>
<path d="M503.516 399.993C498.409 416.16 502.917 473.324 466.699 498.343" stroke="#1A1A1A" stroke-width="2" stroke-miterlimit="10" stroke-linecap="round" stroke-linejoin="round"/>
<path d="M508.15 415.727C508.15 415.727 505.752 425.065 499.941 425.508" stroke="#1A1A1A" stroke-width="2" stroke-miterlimit="10" stroke-linecap="round" stroke-linejoin="round"/>
<path d="M489.173 436.176C487.828 441.554 486.65 447.042 486.781 452.588C486.911 458.133 487.203 462.207 490.763 466.454" stroke="#1A1A1A" stroke-width="2" stroke-miterlimit="10" stroke-linecap="round" stroke-linejoin="round"/>
<path d="M508.15 434.209C507.78 443.511 505.648 452.739 501.906 461.258C500.108 465.348 490.252 477.2 485.806 476.798" stroke="#1A1A1A" stroke-width="2" stroke-miterlimit="10" stroke-linecap="round" stroke-linejoin="round"/>
<path d="M495.776 490.826C500.566 489.647 503.813 485.171 505.768 480.638C507.722 476.104 508.833 471.169 511.512 467.022C515.035 461.56 521.237 457.93 527.721 457.538C534.199 457.142 540.803 459.99 544.962 464.983C545.822 466.015 546.703 467.21 548.016 467.481C549.356 467.758 550.706 466.944 551.566 465.88C552.426 464.821 552.937 463.522 553.63 462.343C555.788 458.691 559.691 456.333 563.783 455.212C567.869 454.09 572.169 454.074 576.406 454.179C580.419 454.278 584.839 454.653 587.649 457.523C589.983 459.901 590.63 463.491 590.463 466.819C590.145 473.178 587.174 479.365 582.41 483.59C577.647 487.811 571.153 490.012 564.804 489.553C560.932 489.277 556.846 488.087 553.312 489.689C550.086 491.149 548.204 494.624 547.459 498.087C546.713 501.551 546.865 505.14 546.463 508.656C546.062 512.178 544.983 515.835 542.335 518.187C540.204 520.081 537.16 520.9 534.366 520.337C531.573 519.768 529.086 517.827 527.856 515.256C526.903 513.258 526.46 510.686 524.453 509.757C522.624 508.912 520.424 510.013 519.152 511.573C517.881 513.132 517.224 515.099 516.166 516.81C513.018 521.922 506.049 524.291 500.446 522.152C494.844 520.013 491.216 513.602 492.269 507.691" fill="#1A1A1A"/>
<path d="M495.776 490.826C500.566 489.647 503.813 485.171 505.768 480.638C507.722 476.104 508.833 471.169 511.512 467.022C515.035 461.56 521.237 457.93 527.721 457.538C534.199 457.142 540.803 459.99 544.962 464.983C545.822 466.015 546.703 467.21 548.016 467.481C549.356 467.758 550.706 466.944 551.566 465.88C552.426 464.821 552.937 463.522 553.63 462.343C555.788 458.691 559.691 456.333 563.783 455.212C567.869 454.09 572.169 454.074 576.406 454.179C580.419 454.278 584.839 454.653 587.649 457.523C589.983 459.901 590.63 463.491 590.463 466.819C590.145 473.178 587.174 479.365 582.41 483.59C577.647 487.811 571.153 490.012 564.804 489.553C560.932 489.277 556.846 488.087 553.312 489.689C550.086 491.149 548.204 494.624 547.459 498.087C546.713 501.551 546.865 505.14 546.463 508.656C546.062 512.178 544.983 515.835 542.335 518.187C540.204 520.081 537.16 520.9 534.366 520.337C531.573 519.768 529.086 517.827 527.856 515.256C526.903 513.258 526.46 510.686 524.453 509.757C522.624 508.912 520.424 510.013 519.152 511.573C517.881 513.132 517.224 515.099 516.166 516.81C513.018 521.922 506.049 524.291 500.446 522.152C494.844 520.013 491.216 513.602 492.269 507.691" stroke="#1A1A1A" stroke-width="2" stroke-miterlimit="10" stroke-linecap="round" stroke-linejoin="round"/>
<path d="M569.677 471.237C569.677 471.237 547.407 468.697 541.512 485.437C535.617 502.177 525.188 485.161 515.681 490.127C506.174 495.093 501.765 503.899 498.737 500.195" stroke="white" stroke-width="2" stroke-miterlimit="10" stroke-linecap="round" stroke-linejoin="round"/>
<path d="M490.085 534.735C500.233 519.481 502.068 493.241 489.121 483.053C478.833 474.957 464.296 481.013 462.076 481.978C461.477 479.527 449.379 432.764 415.715 422.764C381.748 412.67 336.602 443.198 324.927 500.284C324.479 498.296 317.599 470.037 292.091 460.449C274.798 453.944 255.55 458.503 241.869 472.291C241.863 469.01 241.201 426.619 212.895 406.613C184.933 386.852 140.959 396.675 115.347 435.68C84.69 412.461 46.3244 420.255 30.3548 444.293C13.9213 469.036 19.5816 513.456 49.2431 537.964H487.667C488.527 536.941 489.335 535.867 490.085 534.735Z" fill="white" stroke="#1A1A1A" stroke-width="2" stroke-miterlimit="10" stroke-linecap="round" stroke-linejoin="round"/>
<path d="M54.8356 539.017C46.0221 541.704 37.0678 544.996 30.3652 551.318C23.6574 557.641 19.7119 567.72 23.0006 576.332C25.836 583.761 33.3986 588.55 41.1645 590.203C48.9304 591.857 56.9934 590.902 64.8739 589.932C90.7463 586.76 115.774 581.283 139.525 593.427C161.171 604.314 156.074 613.918 168.244 620.225C175.384 623.929 184.271 624.738 192.172 625.291C211.962 626.673 228.588 620.131 247.404 615.963C268.064 611.388 289.037 608.159 310.245 608.263C324.448 608.331 338.27 611.607 352.254 612.223C367.134 612.88 382.546 611.733 397.379 610.381C412.504 609.004 429.834 607.992 442.604 598.785C448.587 594.465 452.856 586.979 451.308 579.76C451.777 581.956 465.552 586.307 467.84 587.167C473.818 589.41 480.042 591.226 486.442 591.685C497.252 592.462 509.13 589.431 515.879 580.365C523.364 570.317 521.472 557.917 513.002 549.164C504.319 540.196 492.978 538.929 481.282 537.317C384.229 523.952 285.623 518.146 187.705 522.58C143.94 524.562 97.0007 526.174 54.8356 539.017Z" fill="white" stroke="#1A1A1A" stroke-width="2" stroke-miterlimit="10" stroke-linecap="round" stroke-linejoin="round"/>
<path d="M177.896 577.803C226.699 577.803 266.261 567.686 266.261 555.205C266.261 542.724 226.699 532.606 177.896 532.606C129.094 532.606 89.5319 542.724 89.5319 555.205C89.5319 567.686 129.094 577.803 177.896 577.803Z" fill="white" stroke="#1A1A1A" stroke-width="2" stroke-miterlimit="10" stroke-linecap="round" stroke-linejoin="round"/>
<path d="M536.565 128.716C536.565 154.992 515.29 176.287 489.037 176.287C486.801 176.287 484.597 176.125 482.439 175.823L489.037 128.711L455.696 94.8234V94.8181C464.28 86.3619 476.049 81.1453 489.037 81.1453C515.29 81.1505 536.565 102.445 536.565 128.716Z" fill="white" stroke="#1A1A1A" stroke-width="2" stroke-miterlimit="10" stroke-linecap="round" stroke-linejoin="round"/>
<path d="M455.696 94.8181V94.828L455.701 94.8231L455.696 94.8181Z" fill="white" stroke="#1A1A1A" stroke-width="2" stroke-miterlimit="10" stroke-linecap="round" stroke-linejoin="round"/>
<path d="M482.439 175.832V175.823V175.832Z" fill="white" stroke="#1A1A1A" stroke-width="2" stroke-miterlimit="10" stroke-linecap="round" stroke-linejoin="round"/>
<path d="M489.037 128.716L482.439 175.828C468.804 173.929 457.025 166.26 449.645 155.347L470.931 140.96L489.037 128.716Z" fill="#1A1A1A" stroke="#1A1A1A" stroke-width="2" stroke-miterlimit="10" stroke-linecap="round" stroke-linejoin="round"/>
<path d="M489.037 128.716L470.931 140.96L449.645 155.347C444.511 147.746 441.509 138.586 441.509 128.716C441.509 115.45 446.945 103.452 455.696 94.8286L489.037 128.716Z" fill="#FF6B1F" stroke="#1A1A1A" stroke-width="2" stroke-miterlimit="10" stroke-linecap="round" stroke-linejoin="round"/>
<path d="M451.193 433.928C451.193 460.204 429.918 481.498 403.665 481.498C401.429 481.498 399.224 481.347 397.066 481.039L403.665 433.922L364.278 460.548C359.144 452.953 356.142 443.787 356.142 433.922C356.142 420.656 361.567 408.653 370.324 400.024C378.903 391.568 390.676 386.352 403.665 386.352C429.912 386.357 451.193 407.656 451.193 433.928Z" fill="white" stroke="#1A1A1A" stroke-width="2" stroke-miterlimit="10" stroke-linecap="round" stroke-linejoin="round"/>
<path d="M403.665 433.928L397.066 481.045C383.432 479.151 371.653 471.472 364.278 460.554L403.665 433.928Z" fill="#1A1A1A" stroke="#1A1A1A" stroke-width="2" stroke-miterlimit="10" stroke-linecap="round" stroke-linejoin="round"/>
<path d="M288.297 48.0925C288.297 74.3689 267.022 95.6633 240.774 95.6633C238.533 95.6633 236.328 95.512 234.176 95.2043L240.774 48.0873L254.716 2.59277C274.162 8.57107 288.297 26.6781 288.297 48.0925Z" fill="white" stroke="#1A1A1A" stroke-width="2" stroke-miterlimit="10" stroke-linecap="round" stroke-linejoin="round"/>
<path d="M254.721 2.60318L240.779 48.0977L229.537 36.668L207.433 14.205V14.1998C216.006 5.74361 227.78 0.521729 240.774 0.521729C245.626 0.521729 250.307 1.25206 254.721 2.60318Z" fill="#FF6B1F" stroke="#1A1A1A" stroke-width="2" stroke-miterlimit="10" stroke-linecap="round" stroke-linejoin="round"/>
<path d="M240.774 48.0925L222.662 60.336L201.387 74.7184C196.253 67.1229 193.251 57.9572 193.251 48.0925C193.251 34.8265 198.676 22.823 207.433 14.1998L229.537 36.6628L240.774 48.0925Z" fill="#FF6B1F" stroke="#1A1A1A" stroke-width="2" stroke-miterlimit="10" stroke-linecap="round" stroke-linejoin="round"/>
<path d="M240.774 48.0925L234.176 95.2095C220.541 93.3158 208.757 85.6369 201.382 74.7184L222.657 60.336L240.774 48.0925Z" fill="#1A1A1A" stroke="#1A1A1A" stroke-width="2" stroke-miterlimit="10" stroke-linecap="round" stroke-linejoin="round"/>
<path d="M305.689 294.121C301.603 296.865 299.435 301.403 299.529 305.984L292.42 310.757C292.42 310.757 287.395 313.287 280.062 305.034L270.076 290.135C263.149 279.801 249.155 277.042 238.83 283.975L221.578 295.556C216.09 301.701 218.159 305.791 218.159 305.791L222.996 313.005C227.593 312.943 232.158 315.165 234.936 319.312C239.283 325.797 237.631 334.54 231.241 338.828C224.851 343.121 216.147 341.332 211.8 334.847C209.022 330.7 208.694 325.635 210.503 321.394L205.666 314.179C203.508 310.96 198.531 312.04 195.325 313.188L177.656 325.051C167.331 331.984 164.58 345.985 171.506 356.324L181.493 371.223C188.826 379.476 193.85 376.946 193.85 376.946L200.959 372.173C200.866 367.593 203.039 363.054 207.12 360.31C213.51 356.022 222.162 357.728 226.446 364.123C230.736 370.524 229.026 379.179 222.636 383.472C218.55 386.216 213.536 386.508 209.335 384.682L202.226 389.456C197.368 392.716 202.559 402.664 202.559 402.664L212.546 417.563C219.472 427.897 233.456 430.657 243.781 423.724L258.87 413.593C258.87 413.593 268.809 408.397 272.067 413.259L276.836 420.375C275.012 424.585 275.303 429.603 278.045 433.688C282.329 440.083 290.981 441.789 297.371 437.501C303.761 433.213 305.465 424.548 301.181 418.152C298.44 414.063 293.91 411.892 289.329 411.986L284.56 404.871C284.56 404.871 282.032 399.842 290.278 392.502L304.955 382.648C315.28 375.715 318.042 361.713 311.115 351.379L301.129 336.48C301.129 336.48 295.938 326.532 300.795 323.272L307.905 318.498C312.111 320.324 317.119 320.032 321.206 317.288C327.596 313 329.3 304.34 325.016 297.94C320.731 291.539 312.079 289.833 305.689 294.121Z" fill="white" stroke="#1A1A1A" stroke-width="3" stroke-miterlimit="10" stroke-linecap="round" stroke-linejoin="round"/>
<path d="M404.264 228.271C400.178 231.015 398.01 235.553 398.104 240.134L390.994 244.907C390.994 244.907 385.97 247.437 378.637 239.184L368.651 224.285C361.724 213.951 347.73 211.192 337.405 218.124L320.153 229.705C314.665 235.851 316.734 239.941 316.734 239.941L321.57 247.155C326.167 247.093 330.733 249.315 333.511 253.462C337.858 259.946 336.206 268.69 329.816 272.978C323.426 277.271 314.722 275.482 310.375 268.997C307.597 264.85 307.269 259.785 309.077 255.544L304.241 248.329C302.083 245.11 297.105 246.19 293.9 247.338L276.231 259.2C265.906 266.133 263.154 280.135 270.081 290.474L280.067 305.373C287.401 313.626 292.425 311.096 292.425 311.096L299.534 306.323C299.44 301.742 301.614 297.204 305.695 294.46C312.085 290.172 320.737 291.878 325.021 298.273C329.31 304.674 327.601 313.329 321.211 317.622C317.125 320.366 312.111 320.658 307.91 318.832L300.801 323.605C295.943 326.866 301.134 336.814 301.134 336.814L311.12 351.713C318.047 362.047 332.031 364.807 342.356 357.874L357.445 347.743C357.445 347.743 367.384 342.547 370.642 347.409L375.411 354.525C373.586 358.734 373.878 363.753 376.62 367.838C380.904 374.233 389.556 375.939 395.946 371.651C402.336 367.363 404.04 358.698 399.756 352.302C397.014 348.212 392.485 346.042 387.904 346.136L383.135 339.021C383.135 339.021 380.607 333.992 388.852 326.652L403.529 316.798C413.854 309.865 416.617 295.863 409.69 285.529L399.704 270.63C399.704 270.63 394.513 260.682 399.37 257.422L406.479 252.648C410.685 254.474 415.694 254.182 419.78 251.438C426.17 247.15 427.875 238.49 423.59 232.089C419.306 225.689 410.649 223.983 404.264 228.271Z" fill="#F79C74" stroke="#1A1A1A" stroke-width="3" stroke-miterlimit="10" stroke-linecap="round" stroke-linejoin="round"/>
<path d="M337.675 128.836C333.589 131.58 331.421 136.119 331.515 140.699L324.406 145.472C324.406 145.472 319.381 148.002 312.048 139.749L302.062 124.851C295.135 114.516 281.141 111.757 270.816 118.69L253.564 130.271C248.076 136.416 250.145 140.506 250.145 140.506L254.982 147.72C259.579 147.658 264.144 149.88 266.922 154.027C271.269 160.512 269.617 169.255 263.227 173.543C256.837 177.836 248.133 176.047 243.786 169.563C241.008 165.415 240.68 160.35 242.489 156.109L237.652 148.894C235.494 145.675 230.517 146.755 227.311 147.903L209.642 159.766C199.318 166.699 196.566 180.7 203.492 191.04L213.479 205.938C220.812 214.191 225.836 211.661 225.836 211.661L232.945 206.888C232.852 202.308 235.025 197.769 239.106 195.025C245.496 190.737 254.148 192.443 258.432 198.838C262.722 205.239 261.012 213.894 254.622 218.187C250.536 220.931 245.522 221.223 241.321 219.397L234.212 224.171C229.354 227.431 234.545 237.379 234.545 237.379L244.532 252.278C251.458 262.612 265.442 265.372 275.767 258.439L290.856 248.308C290.856 248.308 300.795 243.112 304.053 247.974L308.822 255.09C306.998 259.3 307.289 264.318 310.031 268.403C314.315 274.798 322.967 276.504 329.357 272.216C335.747 267.928 337.451 259.263 333.167 252.868C330.426 248.778 325.896 246.608 321.315 246.701L316.546 239.586C316.546 239.586 314.018 234.557 322.264 227.217L336.941 217.363C347.266 210.43 350.028 196.428 343.101 186.094L333.115 171.195C333.115 171.195 327.924 161.247 332.781 157.987L339.891 153.214C344.097 155.039 349.105 154.747 353.192 152.003C359.582 147.715 361.286 139.056 357.002 132.655C352.717 126.254 344.065 124.548 337.675 128.836Z" fill="white" stroke="#1A1A1A" stroke-width="3" stroke-miterlimit="10" stroke-linecap="round" stroke-linejoin="round"/>
<path d="M217.174 554.37C217.174 554.37 218.685 556.686 220.901 556.686C223.116 556.686 257.656 556.686 257.656 556.686C257.656 556.686 258.307 555.669 258.609 554.37H217.174Z" fill="white" stroke="#1A1A1A" stroke-width="2" stroke-miterlimit="10" stroke-linecap="round" stroke-linejoin="round"/>
<path d="M257.254 550.239C254.132 548.021 247.388 547.317 242.551 544.292C237.72 541.266 237.819 539.351 230.47 539.758C223.121 540.16 219.999 541.673 219.999 541.673C219.999 541.673 214.26 543.989 214.359 548.225C214.458 552.456 217.179 554.375 217.179 554.375H258.609C258.917 553.019 258.844 551.365 257.254 550.239Z" fill="#1A1A1A" stroke="#1A1A1A" stroke-width="2" stroke-miterlimit="10" stroke-linecap="round" stroke-linejoin="round"/>
<path d="M213.906 528.334C213.87 528.235 213.854 528.177 213.854 528.177L213.906 528.334Z" fill="white" stroke="#1A1A1A" stroke-width="2" stroke-miterlimit="10" stroke-linecap="round" stroke-linejoin="round"/>
<path d="M219.895 543.384C220.802 543.483 231.976 542.982 232.685 539.555C231.028 535.324 229.907 532.465 229.146 530.53C224.867 532.084 219.874 532.502 215.402 532.606C216.992 537.072 219.316 543.321 219.895 543.384Z" fill="white" stroke="#1A1A1A" stroke-width="2" stroke-miterlimit="10" stroke-linecap="round" stroke-linejoin="round"/>
<path d="M213.906 528.334C213.932 528.407 213.963 528.501 214.005 528.621C214.25 529.33 214.766 530.827 215.402 532.606C219.874 532.502 224.867 532.079 229.146 530.53C227.551 526.461 227.551 526.456 227.551 526.456L213.906 528.334Z" fill="#1A1A1A" stroke="#1A1A1A" stroke-width="2" stroke-miterlimit="10" stroke-linecap="round" stroke-linejoin="round"/>
<path d="M142.965 314.591C143.169 315.196 191.296 318.822 191.296 318.822C191.296 318.822 209.408 423.239 212.838 443.396C216.267 463.553 230.631 521.541 230.97 525.574C231.304 529.606 211.905 532.429 207.943 528.866C203.982 525.303 150.815 391.49 150.815 391.49" fill="#FF6B1F"/>
<path d="M142.965 314.591C143.169 315.196 191.296 318.822 191.296 318.822C191.296 318.822 209.408 423.239 212.838 443.396C216.267 463.553 230.631 521.541 230.97 525.574C231.304 529.606 211.905 532.429 207.943 528.866C203.982 525.303 150.815 391.49 150.815 391.49" stroke="#1A1A1A" stroke-width="2" stroke-miterlimit="10" stroke-linecap="round" stroke-linejoin="round"/>
<path d="M126.396 568.831C131.139 568.1 133.761 564.308 136.242 560.338C138.436 554.907 139.244 548.627 137.633 544.693C134.412 536.832 123.738 540.864 123.738 540.864C123.738 540.864 116.692 543.989 116.994 552.252C117.182 557.354 117.791 563.682 120.079 567.516C121.924 568.758 124.213 569.321 126.396 568.831Z" fill="#1A1A1A" stroke="#1A1A1A" stroke-width="2" stroke-miterlimit="10" stroke-linecap="round" stroke-linejoin="round"/>
<path d="M126.396 568.831C124.213 569.316 121.93 568.758 120.074 567.516C121.492 569.895 123.551 571.319 126.558 570.896C130.483 570.344 134.053 565.763 136.242 560.338C133.761 564.308 131.139 568.106 126.396 568.831Z" fill="white" stroke="#1A1A1A" stroke-width="2" stroke-miterlimit="10" stroke-linecap="round" stroke-linejoin="round"/>
<path d="M119.193 529.168L120.611 546.91C120.611 546.91 128.163 552.654 134.303 546.102C134.36 541.344 133.86 533.493 133.438 527.859C128.893 530.217 123.895 531.208 119.193 529.168Z" fill="white" stroke="#1A1A1A" stroke-width="2" stroke-miterlimit="10" stroke-linecap="round" stroke-linejoin="round"/>
<path d="M118.797 524.233L119.193 529.168C123.889 531.208 128.893 530.217 133.443 527.864C133.151 523.957 132.896 521.109 132.896 521.109L118.797 524.233Z" fill="#1A1A1A" stroke="#1A1A1A" stroke-width="2" stroke-miterlimit="10" stroke-linecap="round" stroke-linejoin="round"/>
<path d="M159.722 356.924C159.722 356.924 151.826 414.981 150.617 427.678C149.407 440.375 139.14 513.951 136.518 522.016C133.902 530.081 118.396 529.878 114.768 523.425C111.141 516.972 102.551 375.198 104.97 355.845C107.388 336.491 121.012 324.263 121.012 324.263L175.384 318.822" fill="#FF6B1F"/>
<path d="M159.722 356.924C159.722 356.924 151.826 414.981 150.617 427.678C149.407 440.375 139.14 513.951 136.518 522.016C133.902 530.081 118.396 529.878 114.768 523.425C111.141 516.972 102.551 375.198 104.97 355.845C107.388 336.491 121.012 324.263 121.012 324.263L175.384 318.822" stroke="#1A1A1A" stroke-width="2" stroke-miterlimit="10" stroke-linecap="round" stroke-linejoin="round"/>
<path d="M124.171 319.969C125.109 320.778 143.101 330.721 163.308 330.585C183.515 330.45 190.9 321.044 190.9 321.044L189.29 316.474L128.335 315.801L124.171 319.969Z" fill="#1A1A1A" stroke="#1A1A1A" stroke-width="2" stroke-miterlimit="10" stroke-linecap="round" stroke-linejoin="round"/>
<path d="M240.774 208.562C240.774 208.562 253.929 197.477 256.952 191.833C259.975 186.188 260.173 193.716 258.834 196.199C257.489 198.687 267.428 193.241 269.841 190.758C272.254 188.275 276.69 184.847 278.029 187.331C279.374 189.819 277.56 200.164 264.035 204.869C250.51 209.574 245.475 214.076 245.475 214.076L240.774 208.562Z" fill="white" stroke="#1A1A1A" stroke-width="2" stroke-miterlimit="10" stroke-linecap="round" stroke-linejoin="round"/>
<path d="M176.797 209.773C176.797 209.773 189.483 228.923 195.727 238.6C201.971 248.277 238.825 207.357 238.825 207.357C243.25 208.818 247.081 210.602 247.482 214.212C247.482 214.212 212.588 262.555 198.015 260.557C183.442 258.559 181.628 236.79 181.628 236.79L176.797 209.773Z" fill="white" stroke="#1A1A1A" stroke-width="2" stroke-miterlimit="10" stroke-linecap="round" stroke-linejoin="round"/>
<path d="M137.326 319.025C137.529 320.032 158.07 329.104 168.541 327.09C179.012 325.077 189.285 317.413 189.285 317.413L187.137 232.752L167.034 209.773C167.034 209.773 142.767 216.826 143.07 216.826C143.372 216.826 137.326 319.025 137.326 319.025Z" fill="#FF6B1F" stroke="#1A1A1A" stroke-width="2" stroke-miterlimit="10" stroke-linecap="round" stroke-linejoin="round"/>
<path d="M160.504 158.232C160.504 158.232 149.814 154.69 149.637 154.867C149.46 155.045 134.506 169.051 134.506 169.051C134.506 169.051 134.506 189.61 134.506 190.622C134.506 191.634 137.597 216.961 137.597 216.961C137.597 216.961 151.425 225.762 162.302 218.975C173.174 212.188 168.145 205.067 168.145 205.067C168.145 205.067 162.907 206.679 161.03 205.469C159.154 204.259 158.346 193.924 158.346 193.924" fill="white"/>
<path d="M160.504 158.232C160.504 158.232 149.814 154.69 149.637 154.867C149.46 155.045 134.506 169.051 134.506 169.051C134.506 169.051 134.506 189.61 134.506 190.622C134.506 191.634 137.597 216.961 137.597 216.961C137.597 216.961 151.425 225.762 162.302 218.975C173.174 212.188 168.145 205.067 168.145 205.067C168.145 205.067 162.907 206.679 161.03 205.469C159.154 204.259 158.346 193.924 158.346 193.924" stroke="#1A1A1A" stroke-width="2" stroke-miterlimit="10" stroke-linecap="round" stroke-linejoin="round"/>
<path d="M160.504 158.232C160.905 158.634 172.236 189.48 162.568 192.839C152.9 196.199 150.215 191.9 150.215 191.9" fill="white"/>
<path d="M160.504 158.232C160.905 158.634 172.236 189.48 162.568 192.839C152.9 196.199 150.215 191.9 150.215 191.9" stroke="#1A1A1A" stroke-width="2" stroke-miterlimit="10" stroke-linecap="round" stroke-linejoin="round"/>
<path d="M146.723 175.369C146.723 175.369 146.463 160.032 151.961 157.763C155.875 156.151 158.841 157.022 160.285 157.763C161.192 160.553 162.031 161.258 163 165.598C164.95 166.067 170.052 156.557 166.414 153.631C162.156 150.209 160.686 148.993 155.954 151.816C150.564 146.875 135.981 139.014 129.268 153.328C122.555 167.643 126.719 175.943 126.719 175.943C126.719 175.943 103.192 186.188 117.39 202.715C108.024 209.267 110.948 224.285 125.041 219.444C139.14 214.609 149.611 208.557 144.175 191.222C142.965 185.88 143.705 183.898 143.705 183.898C143.705 183.898 132.192 180.94 135.413 174.691C138.634 168.441 144.477 171.639 144.477 175.937C146.489 178.327 146.723 175.369 146.723 175.369Z" fill="#1A1A1A" stroke="#1A1A1A" stroke-width="2" stroke-miterlimit="10" stroke-linecap="round" stroke-linejoin="round"/>
<path d="M137.529 240.708C137.733 253.906 121.419 270.849 114.774 284.757C108.128 298.665 115.378 336.83 115.107 338.849C114.836 340.862 112.152 348.186 106.179 346.642C100.206 345.098 94.8325 300.282 94.8325 287.376C94.8325 274.475 99.466 253.311 116.984 230.932C134.501 208.552 141.652 213.696 141.652 213.696C141.652 213.696 155.849 221.354 158.872 241.214C161.895 261.068 156.209 317.21 151.904 323.053C143.768 326.683 122.962 334.274 117.791 323.053C120.45 313.324 121.627 275.685 120.522 274.835" fill="white"/>
<path d="M137.529 240.708C137.733 253.906 121.419 270.849 114.774 284.757C108.128 298.665 115.378 336.83 115.107 338.849C114.836 340.862 112.152 348.186 106.179 346.642C100.206 345.098 94.8325 300.282 94.8325 287.376C94.8325 274.475 99.466 253.311 116.984 230.932C134.501 208.552 141.652 213.696 141.652 213.696C141.652 213.696 155.849 221.354 158.872 241.214C161.895 261.068 156.209 317.21 151.904 323.053C143.768 326.683 122.962 334.274 117.791 323.053C120.45 313.324 121.627 275.685 120.522 274.835" stroke="#1A1A1A" stroke-width="2" stroke-miterlimit="10" stroke-linecap="round" stroke-linejoin="round"/>
<path d="M105.356 344.54C102.744 341.233 103.698 338.077 107.722 335.964C111.751 333.846 114.972 336.063 113.46 339.944C111.954 343.82 107.967 347.842 105.356 344.54Z" fill="#1A1A1A" stroke="#1A1A1A" stroke-width="2" stroke-miterlimit="10" stroke-linecap="round" stroke-linejoin="round"/>
<path d="M166.529 215.417C163.709 207.858 163.506 205.918 163.506 205.918C163.506 205.918 169.521 200.857 175.165 202.642C180.726 204.337 187.674 221.067 190.895 231.01C194.116 240.953 199.755 314.195 199.755 314.195C199.755 314.195 194.252 322.927 189.686 322.26C185.12 321.587 182.973 318.765 182.837 307.611C182.702 296.458 180.825 250.092 177.87 239.341C174.92 228.584 166.529 215.417 166.529 215.417Z" fill="white" stroke="#1A1A1A" stroke-width="2" stroke-miterlimit="10" stroke-linecap="round" stroke-linejoin="round"/>
<path d="M150.215 192.156C150.215 192.156 152.936 196.903 158.169 196.22C157.898 194.305 157.898 194.305 157.898 194.305C157.898 194.305 153.249 194.394 150.215 192.156Z" fill="#1A1A1A" stroke="#1A1A1A" stroke-width="2" stroke-miterlimit="10" stroke-linecap="round" stroke-linejoin="round"/>
<path d="M123.702 339.454C123.702 339.454 119.032 359.408 109.588 361.494Z" fill="#FF6B1F"/>
<path d="M123.702 339.454C123.702 339.454 119.032 359.408 109.588 361.494" stroke="#1A1A1A" stroke-width="2" stroke-miterlimit="10" stroke-linecap="round" stroke-linejoin="round"/>
<path d="M106.179 342.813C106.179 342.813 106.429 359.058 112.819 360.007C119.605 354.911 121.143 347.409 121.143 347.409C121.143 347.409 114.841 336.971 112.558 336.971C110.276 336.965 106.059 337.065 106.179 342.813Z" fill="white" stroke="#1A1A1A" stroke-width="2" stroke-miterlimit="10" stroke-linecap="round" stroke-linejoin="round"/>
<path d="M307.899 365.188L356.262 430.542" stroke="#1A1A1A" stroke-width="2" stroke-miterlimit="10" stroke-linecap="round" stroke-linejoin="round"/>
<path d="M265.552 88.4069L290.335 128.716" stroke="#1A1A1A" stroke-width="2" stroke-miterlimit="10" stroke-linecap="round" stroke-linejoin="round"/>
<path d="M451.193 157.726L353.812 226.445" stroke="#1A1A1A" stroke-width="2" stroke-miterlimit="10" stroke-linecap="round" stroke-linejoin="round"/>
<path d="M471.921 255.361C477.847 275.325 476.263 297.428 467.548 316.339" stroke="#1A1A1A" stroke-width="2" stroke-miterlimit="10" stroke-linecap="round" stroke-linejoin="round"/>
<path d="M483.982 261.83C487.521 270.531 487.797 280.521 484.748 289.41" stroke="#1A1A1A" stroke-width="2" stroke-miterlimit="10" stroke-linecap="round" stroke-linejoin="round"/>
<path d="M56.3939 346.934C57.9314 345.682 58.88 343.737 58.7654 341.572C58.5934 338.254 55.8831 335.578 52.5683 335.447C48.8782 335.301 45.8344 338.254 45.8344 341.916C45.8344 343.94 46.7621 345.745 48.2163 346.934C44.4428 348.432 41.6804 351.932 41.2478 356.131H29.2758L21.1607 348.009C24.4391 347.393 26.9148 344.514 26.9148 341.055V338.176C26.9148 333.475 24.0013 329.459 19.8838 327.826C21.4213 326.574 22.3699 324.628 22.2552 322.463C22.0832 319.145 19.373 316.469 16.0582 316.339C12.3681 316.193 9.32425 319.145 9.32425 322.807C9.32425 324.831 10.252 326.636 11.7061 327.826C7.58865 329.459 4.67514 333.475 4.67514 338.176V341.055C4.67514 344.963 7.83883 348.134 11.7478 348.134H18.5756L27.7695 357.336L20.8272 375.955C19.5815 374.129 17.8094 372.694 15.7246 371.865C17.2621 370.613 18.2107 368.667 18.0961 366.502C17.9241 363.184 15.2138 360.508 11.899 360.378C8.20888 360.232 5.16507 363.184 5.16507 366.846C5.16507 368.87 6.09281 370.675 7.54696 371.865C3.43468 373.492 0.521169 377.509 0.521169 382.21V385.089C0.521169 388.996 3.68486 392.168 7.59386 392.168H15.6881C19.5919 392.168 22.7608 389.002 22.7608 385.089V382.21C22.7608 380.806 22.5002 379.466 22.0259 378.229L29.5468 358.046H41.1905V360.159C41.1905 364.066 44.3542 367.238 48.2632 367.238H56.3574C60.2612 367.238 63.4301 364.071 63.4301 360.159V357.279C63.4249 352.584 60.5114 348.567 56.3939 346.934Z" fill="white" stroke="#1A1A1A" stroke-width="2" stroke-miterlimit="10" stroke-linecap="round" stroke-linejoin="round"/>
<path d="M524.062 282.305C528.653 282.305 532.375 278.58 532.375 273.985C532.375 269.389 528.653 265.664 524.062 265.664C519.471 265.664 515.749 269.389 515.749 273.985C515.749 278.58 519.471 282.305 524.062 282.305Z" fill="#1A1A1A" stroke="#1A1A1A" stroke-width="2" stroke-miterlimit="10" stroke-linecap="round" stroke-linejoin="round"/>
<path d="M564.043 320.314C567.526 320.314 570.35 317.488 570.35 314.002C570.35 310.515 567.526 307.689 564.043 307.689C560.56 307.689 557.737 310.515 557.737 314.002C557.737 317.488 560.56 320.314 564.043 320.314Z" fill="#1A1A1A" stroke="#1A1A1A" stroke-width="2" stroke-miterlimit="10" stroke-linecap="round" stroke-linejoin="round"/>
<path d="M575.207 280.297C578.69 280.297 581.514 277.471 581.514 273.985C581.514 270.499 578.69 267.672 575.207 267.672C571.724 267.672 568.901 270.499 568.901 273.985C568.901 277.471 571.724 280.297 575.207 280.297Z" fill="white" stroke="#1A1A1A" stroke-width="2" stroke-miterlimit="10" stroke-linecap="round" stroke-linejoin="round"/>
<path d="M536.451 310.277C542.53 310.277 547.459 305.344 547.459 299.259C547.459 293.174 542.53 288.242 536.451 288.242C530.372 288.242 525.443 293.174 525.443 299.259C525.443 305.344 530.372 310.277 536.451 310.277Z" fill="white" stroke="#1A1A1A" stroke-width="2" stroke-miterlimit="10" stroke-linecap="round" stroke-linejoin="round"/>
<path d="M515.749 333.46C518.673 333.46 521.044 331.087 521.044 328.16C521.044 325.233 518.673 322.86 515.749 322.86C512.824 322.86 510.453 325.233 510.453 328.16C510.453 331.087 512.824 333.46 515.749 333.46Z" fill="white" stroke="#1A1A1A" stroke-width="2" stroke-miterlimit="10" stroke-linecap="round" stroke-linejoin="round"/>
<path d="M530.197 308.326L518.386 323.564" stroke="#1A1A1A" stroke-width="2" stroke-miterlimit="10" stroke-linecap="round" stroke-linejoin="round"/>
<path d="M545.713 305.212L558.503 310.992" stroke="#1A1A1A" stroke-width="2" stroke-miterlimit="10" stroke-linecap="round" stroke-linejoin="round"/>
<path d="M569.808 277.245L546.244 294.23" stroke="#1A1A1A" stroke-width="2" stroke-miterlimit="10" stroke-linecap="round" stroke-linejoin="round"/>
<path d="M526.345 281.987L530.197 289.379" stroke="#1A1A1A" stroke-width="2" stroke-miterlimit="10" stroke-linecap="round" stroke-linejoin="round"/>
</g>
<defs>
<clipPath id="clip0_1_470">
<rect width="591" height="626" fill="white"/>
</clipPath>
</defs>
</svg>
